<?xml version="1.0" encoding="UTF-8" ?>
<!DOCTYPE svg PUBLIC "-//W3C//DTD SVG 1.1//EN" "http://www.w3.org/Graphics/SVG/1.1/DTD/svg11.dtd">
<svg width="274pt" height="62pt" viewBox="0 0 274 62" version="1.1" xmlns="http://www.w3.org/2000/svg">
<path fill="#c0c0c0" d=" M 5.20 2.34 C 6.76 1.90 8.41 2.01 10.02 1.97 C 27.38 2.09 44.76 1.90 62.12 2.05 C 64.74 1.86 66.37 4.54 66.01 6.92 C 65.96 22.32 66.07 37.73 65.95 53.12 C 66.15 55.74 63.46 57.37 61.09 57.01 C 43.03 56.95 24.96 57.07 6.89 56.95 C 4.75 57.12 2.87 55.17 3.04 53.05 C 2.92 38.03 3.07 23.00 2.97 7.98 C 2.90 5.90 2.98 3.31 5.20 2.34 Z" />
<path fill="#c0c0c0" d=" M 106.40 5.05 C 106.41 3.24 108.17 1.85 109.93 2.03 C 127.28 1.93 144.65 2.07 162.01 1.97 C 163.85 1.95 166.42 1.92 167.08 4.10 C 167.67 9.69 167.18 15.34 167.27 20.95 C 170.38 21.43 174.13 20.18 176.81 22.07 C 177.15 33.32 177.10 44.63 176.84 55.88 C 176.61 56.12 176.14 56.61 175.90 56.85 C 169.06 56.96 162.07 57.46 155.30 56.57 C 154.30 52.83 154.96 48.88 154.84 45.04 C 149.69 45.00 144.53 44.91 139.38 45.12 C 139.41 47.29 139.43 49.47 139.46 51.64 C 142.56 51.70 145.75 51.26 148.79 52.06 C 150.68 52.97 150.38 55.29 150.62 57.02 C 141.43 56.92 132.24 57.13 123.06 56.91 C 123.51 55.22 123.32 52.90 125.16 52.00 C 128.16 51.17 131.35 51.64 134.43 51.58 C 134.46 49.43 134.48 47.29 134.53 45.15 C 129.41 44.89 124.29 45.02 119.16 45.04 C 119.13 48.69 119.47 52.37 118.96 56.00 C 118.71 56.21 118.20 56.64 117.95 56.85 C 108.56 57.27 99.13 56.81 89.73 57.05 C 88.66 54.14 89.00 51.01 88.99 47.98 C 89.02 38.31 89.00 28.65 88.98 18.99 C 89.15 17.71 88.62 15.88 90.17 15.29 C 95.53 14.77 100.93 15.25 106.30 15.07 C 106.33 11.73 106.15 8.38 106.40 5.05 Z" />
<path fill="#c0c0c0" d=" M 198.16 3.28 C 200.40 2.79 202.73 3.01 205.01 2.98 C 223.68 3.06 242.36 2.94 261.03 3.03 C 263.24 2.77 265.24 4.75 264.98 6.98 C 265.02 22.67 265.02 38.36 264.98 54.05 C 265.24 56.26 263.23 58.22 261.03 57.97 C 240.67 58.02 220.29 58.02 199.93 57.97 C 197.75 58.23 195.78 56.26 196.02 54.09 C 195.95 38.70 196.04 23.31 195.98 7.93 C 195.86 6.13 196.30 4.04 198.16 3.28 Z" />
<path fill="whitesmoke" d=" M 112.15 7.21 C 128.53 7.18 144.92 7.33 161.30 7.14 C 161.64 11.76 161.48 16.38 161.45 21.00 C 159.34 21.32 156.75 20.48 155.03 22.05 C 154.49 27.64 154.93 33.28 154.82 38.89 C 142.94 38.94 131.05 38.96 119.17 38.88 C 119.06 31.27 119.50 23.63 118.98 16.03 C 117.15 14.38 114.35 15.30 112.11 14.99 C 112.12 12.40 112.13 9.81 112.15 7.21 Z" />
<path fill="white" d=" M 202.46 7.39 C 204.83 6.64 205.39 11.03 202.95 10.90 C 200.74 11.61 200.01 7.28 202.46 7.39 Z" />
<path fill="whitesmoke" d=" M 208.42 7.38 C 210.54 6.72 211.78 9.84 209.81 10.88 C 207.49 11.96 205.98 8.08 208.42 7.38 Z" />
<path fill="whitesmoke" d=" M 8.00 8.01 C 25.67 8.00 43.33 8.00 60.99 8.01 C 60.98 22.42 60.88 36.83 60.88 51.24 C 43.30 51.31 25.70 51.35 8.12 51.23 C 8.09 36.82 8.03 22.41 8.00 8.01 Z" />
<path fill="#c0c0c0" d=" M 39.71 15.67 C 41.81 12.76 46.28 12.06 49.11 14.32 C 47.50 15.72 44.52 16.41 44.53 18.98 C 44.81 20.71 46.01 22.67 47.96 22.75 C 49.80 21.97 51.45 20.84 53.18 19.85 C 53.07 23.20 51.58 27.05 48.01 27.96 C 46.02 27.99 44.05 27.62 42.07 27.62 C 40.36 28.52 39.19 30.63 37.26 30.91 C 36.11 29.93 35.11 28.79 34.09 27.69 C 35.60 26.22 37.48 24.98 38.39 23.01 C 38.73 20.57 37.99 17.75 39.71 15.67 Z" />
<path fill="#c0c0c0" d=" M 17.65 19.41 C 15.65 17.33 18.30 13.66 20.93 14.70 C 24.84 17.74 27.70 21.90 31.40 25.18 C 31.35 25.82 31.25 27.10 31.19 27.74 C 35.56 31.78 39.15 36.68 44.15 40.01 C 45.99 41.52 46.61 43.95 47.16 46.16 C 45.08 45.37 42.66 44.74 41.45 42.68 C 38.22 37.63 33.41 33.91 29.57 29.36 C 28.78 29.48 27.99 29.60 27.20 29.73 C 24.07 26.25 20.63 23.03 17.65 19.41 Z" />
<path fill="whitesmoke" d=" M 201.07 15.01 C 220.69 14.96 240.30 15.00 259.92 14.99 C 259.95 27.46 259.89 39.93 259.95 52.39 C 240.32 52.49 220.68 52.48 201.05 52.40 C 201.10 39.94 201.06 27.47 201.07 15.01 Z" />
<path fill="whitesmoke" d=" M 93.88 20.00 C 100.69 19.96 107.49 19.97 114.30 19.99 C 114.30 29.67 114.33 39.34 114.28 49.02 C 107.48 49.01 100.68 49.05 93.87 49.00 C 93.87 39.34 93.85 29.67 93.88 20.00 Z" />
<path fill="whitesmoke" d=" M 163.33 25.02 C 163.69 22.41 168.19 22.37 168.49 25.03 C 166.77 25.05 165.05 25.05 163.33 25.02 Z" />
<path fill="#c0c0c0" d=" M 211.22 22.95 C 214.09 22.34 217.03 22.41 219.92 22.80 C 219.93 25.50 219.90 28.20 219.82 30.89 C 217.00 31.04 214.17 31.03 211.36 30.83 C 211.30 28.20 211.26 25.58 211.22 22.95 Z" />
<path fill="#c0c0c0" d=" M 226.17 22.87 C 229.04 22.40 231.96 22.38 234.83 22.88 C 234.80 25.53 234.77 28.18 234.75 30.83 C 231.92 31.07 229.08 31.06 226.25 30.82 C 226.23 28.17 226.20 25.52 226.17 22.87 Z" />
<path fill="#c0c0c0" d=" M 241.08 22.79 C 243.97 22.41 246.90 22.37 249.77 22.93 C 249.73 25.55 249.70 28.17 249.68 30.79 C 246.85 31.05 244.00 31.06 241.16 30.88 C 241.09 28.18 241.07 25.49 241.08 22.79 Z" />
<path fill="whitesmoke" d=" M 159.08 27.31 C 163.69 27.40 168.30 27.40 172.91 27.31 C 173.08 34.56 172.98 41.82 172.98 49.08 C 168.30 49.10 163.61 49.10 158.93 49.07 C 158.99 41.82 158.77 34.56 159.08 27.31 Z" />
<path fill="#c0c0c0" d=" M 29.42 32.01 C 30.57 33.05 31.77 34.04 32.74 35.24 C 30.28 38.82 27.07 41.96 24.08 45.13 C 22.08 47.21 18.59 44.64 19.56 42.03 C 22.33 38.23 26.28 35.50 29.42 32.01 Z" />
<path fill="whitesmoke" d=" M 103.24 52.20 C 104.88 51.65 105.45 52.18 104.95 53.81 C 103.31 54.36 102.74 53.83 103.24 52.20 Z" />
<path fill="whitesmoke" d=" M 163.53 52.37 C 164.66 51.57 166.45 51.58 167.57 52.38 C 167.41 53.85 163.70 53.84 163.53 52.37 Z" />
</svg>
