<svg width="32" height="32" xmlns="http://www.w3.org/2000/svg" xmlns:xlink="http://www.w3.org/1999/xlink"><defs><radialGradient cx="50%" cy="1.686%" fx="50%" fy="1.686%" r="98.314%" id="b"><stop stop-color="#FFF" stop-opacity=".08" offset="0%"/><stop stop-color="#FFF" stop-opacity="0" offset="100%"/></radialGradient><circle id="a" cx="14.667" cy="14.667" r="14.667"/><filter x="-1.7%" y="-1.7%" width="103.4%" height="103.4%" filterUnits="objectBoundingBox" id="c"><feOffset dy="1" in="SourceAlpha" result="shadowOffsetInner1"/><feComposite in="shadowOffsetInner1" in2="SourceAlpha" operator="arithmetic" k2="-1" k3="1" result="shadowInnerInner1"/><feColorMatrix values="0 0 0 0 1 0 0 0 0 1 0 0 0 0 1 0 0 0 0.2 0" in="shadowInnerInner1" result="shadowMatrixInner1"/><feOffset dy="-1" in="SourceAlpha" result="shadowOffsetInner2"/><feComposite in="shadowOffsetInner2" in2="SourceAlpha" operator="arithmetic" k2="-1" k3="1" result="shadowInnerInner2"/><feColorMatrix values="0 0 0 0 0 0 0 0 0 0 0 0 0 0 0 0 0 0 0.2 0" in="shadowInnerInner2" result="shadowMatrixInner2"/><feMerge><feMergeNode in="shadowMatrixInner1"/><feMergeNode in="shadowMatrixInner2"/></feMerge></filter><linearGradient x1="40.37%" y1="50%" x2="94.309%" y2="97.356%" id="d"><stop stop-opacity=".2" offset="0%"/><stop stop-opacity=".02" offset="100%"/></linearGradient><path d="M10.587 23.188c-2.472-1.33-4.066-3.945-4.119-7.402-.239.121-.51.142-.824.028-.896-.327-.694-1.419-.366-2.392.273-.806 1.202-1.394 1.657-1.517 1.06-4.06 3.546-7.238 7.732-7.238 4.236 0 6.739 3.047 7.768 7.249.467.143 1.355.722 1.62 1.506.329.973.53 2.065-.366 2.392-.313.114-.585.093-.824-.027-.048 3.478-1.642 6.083-4.113 7.406.15.12.234.275.234.474 0 .644.313 1.166-1.986 1.166-1.678 0-1.964-.355-1.997-.74-.111-.071-.223-.176-.336-.176-.114 0-.226.113-.338.183-.036.383-.33.733-1.996.733-2.299 0-1.985-.522-1.985-1.166 0-.202.087-.359.24-.48zm4.08-.688c4.777 0 6.5-3.392 6.5-7.9 0-3.74-1.567-7.176-4.167-7.75-.833-.183-1.417 1.817-2.333 1.817-.917 0-1.584-2-2.334-1.817-2.61.64-4.166 4.207-4.166 7.75 0 4.254 1.722 7.9 6.5 7.9zm-3-10a1 1 0 1 1 0-2 1 1 0 0 1 0 2zm6 0a1 1 0 1 1 0-2 1 1 0 0 1 0 2zm-2.82.54l1.373.602a.463.463 0 0 1 .156.74L15.01 15.85a.475.475 0 0 1-.694-.001l-1.36-1.471a.462.462 0 0 1 .155-.739l1.352-.598a.476.476 0 0 1 .384-.001z" id="g"/><filter x="-12.9%" y="-12.4%" width="136.2%" height="134.7%" filterUnits="objectBoundingBox" id="f"><feOffset dx="1" dy="1" in="SourceAlpha" result="shadowOffsetOuter1"/><feGaussianBlur stdDeviation="1" in="shadowOffsetOuter1" result="shadowBlurOuter1"/><feColorMatrix values="0 0 0 0 0 0 0 0 0 0 0 0 0 0 0 0 0 0 0.1 0" in="shadowBlurOuter1"/></filter><filter x="-7.8%" y="-7.4%" width="125.9%" height="124.8%" filterUnits="objectBoundingBox" id="h"><feOffset dy="1" in="SourceAlpha" result="shadowOffsetInner1"/><feComposite in="shadowOffsetInner1" in2="SourceAlpha" operator="arithmetic" k2="-1" k3="1" result="shadowInnerInner1"/><feColorMatrix values="0 0 0 0 1 0 0 0 0 1 0 0 0 0 1 0 0 0 0.4 0" in="shadowInnerInner1"/></filter></defs><g transform="translate(1.333 1.333)" fill="none" fill-rule="evenodd"><mask id="e" fill="#fff"><use xlink:href="#a"/></mask><use fill="#4B4B4B" xlink:href="#a"/><use fill="url(#b)" xlink:href="#a"/><use fill="#000" filter="url(#c)" xlink:href="#a"/><path d="M10.602 24.543c.26.154.765.246 1.731.246 1.666 0 1.96-.35 1.996-.732.112-.07.224-.184.338-.184.113 0 .225.105.336.175.033.386.32.741 1.997.741 2.3 0 1.986-.522 1.986-1.166a.584.584 0 0 0-.234-.474c2.471-1.323 4.065-3.928 4.113-7.406.239.12.51.14.824.027.896-.327.695-1.418.366-2.392-.265-.784-1.153-1.362-1.62-1.506-.436-1.78-1.136-3.352-2.12-4.573l8.96 9.035c-.814 7.18-6.811 12.787-14.16 12.99l-4.513-4.781zm8.361-18.557l.02-.03.195.197a6.976 6.976 0 0 0-.215-.167z" fill="url(#d)" mask="url(#e)"/><g mask="url(#e)"><use fill="#000" filter="url(#f)" xlink:href="#g"/><use fill="#FAFAFA" xlink:href="#g"/><use fill="#000" filter="url(#h)" xlink:href="#g"/></g></g></svg>