<?xml version="1.0" encoding="UTF-8"?>
<svg width="16px" height="16px" viewBox="0 0 16 16" version="1.1" xmlns="http://www.w3.org/2000/svg" xmlns:xlink="http://www.w3.org/1999/xlink">
    <defs>
        <path d="M10,10 L2,10 L2,2 L5.2,2 L5.2,0.4 L2,0.4 C1.2,0.4 0.4,1.2 0.4,2 C0.4,2.53333333 0.4,5.2 0.4,10 C0.4,10.8 1.2,11.6 2,11.6 L10,11.6 C10.8,11.6 11.6,10.8 11.6,10 L11.6,6.8 L10,6.8 L10,10 Z M6.8,0.4 L6.8,2 L8.8,2 L3.6,7.2 L4.8,8.4 L10,3.2 L10,5.2 L11.6,5.2 L11.6,0.4 L6.8,0.4 Z" id="path-1"></path>
    </defs>
    <g id="ic_launch_16" stroke="none" stroke-width="1" fill="none" fill-rule="evenodd">
        <g id="dense/action/launch" transform="translate(2.000000, 2.000000)">
            <mask id="mask-2" fill="white">
                <use xlink:href="#path-1"></use>
            </mask>
            <use id="↳Color-fill" fill="#4C4C4C" xlink:href="#path-1"></use>
        </g>
    </g>
</svg>
