<svg xmlns="http://www.w3.org/2000/svg" width="20" height="20" viewBox="0 0 20 20"><defs><path id="reuse-0" fill="#FFCD40" d="M12.71 0H6.456l6.52 11.25h6.191z"/><path id="a" d="M12.71 0H6.456L0 11.25l3.052 5.417h13.063l3.052-5.417L12.71 0zM6.19 11.25l3.393-5.854 3.393 5.854H6.191z"/></defs><defs><use href="#a"/><use id="d" href="#a"/><use id="f" href="#a"/><use id="h" href="#a"/><use id="l" href="#a"/><path id="j" d="M.031 5.417h13.063L16.146 0H3.17z"/><path id="n" d="M6.456 0L0 11.25l3.052 5.417L9.583 5.396z"/><radialGradient id="p" cx="33.896%" cy="1.011%" r="114.534%" fx="33.896%" fy="1.011%" gradientTransform="matrix(.86957 0 0 1 .044 0)"><stop offset="0%" stop-color="#FFF" stop-opacity=".1"/><stop offset="100%" stop-color="#FFF" stop-opacity="0"/></radialGradient><linearGradient id="c" x1="25.311%" x2="100.67%" y1="50.149%" y2="85.425%"><stop offset="0%" stop-color="#1A237E" stop-opacity=".2"/><stop offset="100%" stop-color="#1A237E" stop-opacity=".02"/></linearGradient></defs><g fill="none" fill-rule="evenodd"><g transform="translate(.417 1.667)"><mask id="b" fill="#fff"><use href="#a"/></mask><g fill-rule="nonzero" mask="url(#b)"><path fill="#4285F4" d="M3.051 11.25v5.417h13.063l3.052-5.417z"/><path fill="url(#c)" d="M3.17 0l3.139 5.417H.031z" transform="translate(3.02 11.25)"/><path fill="#FFF" fill-opacity=".2" d="M6.129 11.354h12.859l.178-.104H6.19z"/><path fill="#1A237E" fill-opacity=".2" d="M18.988 11.354l-2.935 5.209H3.112l-.061.104h13.063l3.052-5.417z"/><path fill="#1A237E" fill-opacity=".05" d="M6.25 11.354l-.06-.104-3.139 5.417h.12z"/></g></g><g transform="translate(.417 1.667)"><mask id="e" fill="#fff"><use href="#d"/></mask><g fill-rule="nonzero" mask="url(#e)"><path fill="#0F9D58" d="M6.456 0L0 11.25l3.052 5.417 7.364-12.708z"/><path fill="#263238" fill-opacity=".1" d="M6.456 0l.058.307 2.949 5.089-6.41 11.06L.12 11.25H0l3.052 5.417L9.583 5.396z"/><path fill="#FFF" fill-opacity=".2" d="M.12 11.25L6.517.104 6.456 0 0 11.25z"/></g></g><g transform="translate(.417 1.667)"><mask id="g" fill="#fff"><use href="#f"/></mask><g fill-rule="nonzero" mask="url(#g)"><use href="#reuse-0"/><path fill="#FFF" fill-opacity=".2" d="M12.71 0H6.456l.18.104h6.014l6.397 11.146h.12z"/><path fill="#BF360C" fill-opacity=".1" d="M13.035 11.146L6.636.104 6.456 0l6.52 11.25z"/></g></g><g transform="translate(.417 1.667)"><mask id="i" fill="#fff"><use href="#h"/></mask><g mask="url(#i)"><g transform="translate(3.02 11.25)"><mask id="k" fill="#fff"><use href="#j"/></mask><g mask="url(#k)"><path fill="#0F9D58" fill-rule="nonzero" d="M3.436-11.25L-3.021 0 .031 5.417 7.395-7.29z"/></g></g></g></g><g transform="translate(.417 1.667)"><mask id="m" fill="#fff"><use href="#l"/></mask><g mask="url(#m)"><mask id="o" fill="#fff"><use href="#n"/></mask><g mask="url(#o)"><use fill-rule="nonzero" href="#reuse-0"/></g></g></g><path fill="url(#p)" fill-rule="nonzero" d="M13.127 1.667H6.873L.417 12.917l3.052 5.416H16.53l3.052-5.416-6.456-11.25zm-6.52 11.25L10 7.063l3.393 5.854H6.607z"/><path d="M0 0h20v20H0z"/></g></svg>