<svg xmlns="http://www.w3.org/2000/svg"
  xmlns:xlink="http://www.w3.org/1999/xlink" viewBox="0 0 1586.38 846.63">
  <defs>
    <style>      .cls-15,      .cls-16,      .cls-20,      .cls-21,      .cls-23,      .cls-29,      .cls-33,      .cls-46,      .cls-47,      .cls-5 {        fill: none      }
      .cls-3 {        fill: #f1f2f2      }
      .cls-4 {        fill: #e1e2e6      }
      .cls-33,      .cls-47,      .cls-5 {        stroke: #fff      }
      .cls-15,      .cls-20,      .cls-23,      .cls-29,      .cls-33,      .cls-46,      .cls-47,      .cls-5 {        stroke-linecap: round      }
      .cls-15,      .cls-16,      .cls-20,      .cls-21,      .cls-5 {        stroke-miterlimit: 10      }
      .cls-5 {        stroke-width: 12.41px      }
      .cls-6 {        fill: #fff      }
      .cls-23 {        mix-blend-mode: multiply      }
      .cls-10 {        fill: #4285f4      }
      .cls-15 {        stroke: #979da5      }
      .cls-15,      .cls-29 {        stroke-width: 5.15px      }
      .cls-16,      .cls-20,      .cls-46 {        stroke: #686c71      }
      .cls-16,      .cls-20,      .cls-46,      .cls-47 {        stroke-width: 6.4px      }
      .cls-17 {        fill: #979da5      }
      .cls-19 {        fill: #34a853      }
      .cls-21 {        stroke: #f2f3f4;        stroke-width: 3.43px      }
      .cls-22 {        fill: #ea4335      }
      .cls-23,      .cls-29 {        stroke: #4285f4      }
      .cls-23,      .cls-29,      .cls-33,      .cls-46,      .cls-47 {        stroke-linejoin: round      }
      .cls-23 {        stroke-width: 12px      }
      .cls-28 {        fill: #fbbc05      }
      .cls-33 {        stroke-width: 5.64px      }
      .cls-36 {        fill: #686c71      }
      .cls-41 {        fill: #2a2c33      }    </style>
    <linearGradient id="linear-gradient" x1="9424.34" y1="297.42" x2="9625.34" y2="297.42" gradientTransform="matrix(1.05 0 0 1 -9807.24 471.69)" gradientUnits="userSpaceOnUse">
      <stop offset="0" stop-color="#fff" />
      <stop offset="1" stop-color="#979da5" />
    </linearGradient>
    <linearGradient id="linear-gradient-2" x1="10211.87" y1="301.85" x2="10461.84" y2="301.85" xlink:href="#linear-gradient" />
    <linearGradient id="linear-gradient-3" x1="10591.49" y1="305.35" x2="10705.62" y2="305.35" xlink:href="#linear-gradient" />
    <linearGradient id="linear-gradient-4" x1="1057.05" y1="644" x2="1418.97" y2="644" gradientTransform="matrix(-1 0 0 1 1928 0)" gradientUnits="userSpaceOnUse">
      <stop offset="0" stop-color="#686c71" />
      <stop offset=".32" stop-color="#9d9fa3" />
      <stop offset=".78" stop-color="#e3e4e5" />
      <stop offset="1" stop-color="#fff" />
    </linearGradient>
    <linearGradient id="linear-gradient-5" x1="955.26" y1="129.27" x2="1021.33" y2="129.27" gradientTransform="rotate(180 894.015 222.815)" gradientUnits="userSpaceOnUse">
      <stop offset="0" stop-color="#979da5" />
      <stop offset="1" stop-color="#fff" />
    </linearGradient>
    <linearGradient id="linear-gradient-6" x1="741.04" y1="121.29" x2="822.23" y2="121.29" gradientTransform="rotate(90 691.195 352.105)" xlink:href="#linear-gradient-5" />
    <linearGradient id="linear-gradient-7" x1="672.18" y1="632.75" x2="909.85" y2="395.08" xlink:href="#linear-gradient" />
    <linearGradient id="linear-gradient-8" x1="1124.31" y1="657.44" x2="1005.01" y2="657.44" xlink:href="#linear-gradient" />
    <linearGradient id="linear-gradient-9" x1="1291.74" y1="328.74" x2="1400.04" y2="437.04" gradientTransform="rotate(90 1368.5 322.5)" gradientUnits="userSpaceOnUse">
      <stop offset="0" stop-color="#e1e2e6" />
      <stop offset="1" stop-color="#fff" />
    </linearGradient>
    <linearGradient id="linear-gradient-10" x1="890.9" y1="351.48" x2="843.75" y2="398.63" xlink:href="#linear-gradient-5" />
    <linearGradient id="linear-gradient-11" x1="882.1" y1="713.27" x2="896.32" y2="727.49" xlink:href="#linear-gradient-5" />
    <linearGradient id="linear-gradient-12" x1="585.8" y1="656.66" x2="585.8" y2="500.58" gradientTransform="rotate(-7.81 -260.353 1606.207)" xlink:href="#linear-gradient" />
    <linearGradient id="linear-gradient-13" x1="594.3" y1="502.49" x2="594.3" y2="628.88" gradientTransform="rotate(-7.81 -260.353 1606.207)" gradientUnits="userSpaceOnUse">
      <stop offset=".38" stop-color="#fff" stop-opacity="0" />
      <stop offset=".38" stop-color="#f9f9fa" stop-opacity=".06" />
      <stop offset=".38" stop-color="#e2e4e6" stop-opacity=".28" />
      <stop offset=".39" stop-color="#ced0d4" stop-opacity=".48" />
      <stop offset=".4" stop-color="#bcc0c5" stop-opacity=".64" />
      <stop offset=".4" stop-color="#afb3b9" stop-opacity=".77" />
      <stop offset=".41" stop-color="#a4a9b0" stop-opacity=".88" />
      <stop offset=".42" stop-color="#9ca2aa" stop-opacity=".95" />
      <stop offset=".43" stop-color="#989ea6" stop-opacity=".99" />
      <stop offset=".47" stop-color="#979da5" />
      <stop offset=".57" stop-color="#bfc3c8" stop-opacity=".61" />
      <stop offset=".66" stop-color="#e2e3e6" stop-opacity=".28" />
      <stop offset=".73" stop-color="#f7f7f8" stop-opacity=".08" />
      <stop offset=".77" stop-color="#fff" stop-opacity="0" />
    </linearGradient>
    <linearGradient id="linear-gradient-14" x1="260.06" y1="560.5" x2="366.27" y2="560.5" xlink:href="#linear-gradient" />
    <linearGradient id="linear-gradient-15" x1="2123.45" y1="1680.93" x2="2059.86" y2="1680.93" gradientTransform="rotate(180 1271.845 1170.365)" gradientUnits="userSpaceOnUse">
      <stop offset="0" stop-color="#fff" />
      <stop offset="1" stop-color="#686c71" />
    </linearGradient>
    <linearGradient id="linear-gradient-16" x1="2003.93" y1="1681.29" x2="2003.93" y2="1756.07" gradientTransform="translate(-1558.93 -1115.88)" gradientUnits="userSpaceOnUse">
      <stop offset="0" stop-color="#fff" />
      <stop offset="1" stop-color="#808285" />
    </linearGradient>
    <linearGradient id="linear-gradient-17" x1="-17031.15" y1="3746.35" x2="-17031.15" y2="4024.29" gradientTransform="matrix(.21 0 0 .66 4090.12 -1587.95)" gradientUnits="userSpaceOnUse">
      <stop offset="0" stop-color="#fff" />
      <stop offset=".91" stop-color="#8c8d90" />
      <stop offset="1" stop-color="#808285" />
    </linearGradient>
    <linearGradient id="linear-gradient-18" x1="3.51" y1="3618.68" x2="3.51" y2="3643.66" gradientTransform="translate(510.76 -2786.98)" gradientUnits="userSpaceOnUse">
      <stop offset="0" stop-color="#fff" />
      <stop offset=".91" stop-color="#fbc21d" />
      <stop offset="1" stop-color="#fbbc05" />
    </linearGradient>
    <linearGradient id="linear-gradient-19" x1="-146.99" y1="-862.05" x2="-76.83" y2="-791.89" gradientTransform="rotate(111.7 193.858 577.349)" xlink:href="#linear-gradient-9" />
    <linearGradient id="linear-gradient-20" x1="9501.62" y1="75.44" x2="9556.03" y2="75.44" xlink:href="#linear-gradient" />
    <clipPath id="clip-path" transform="translate(-149.62 -106.37)">
      <path d="M1085.1 397H735.44v494h349.66a12.27 12.27 0 0 0 12.27-12.27V409.27A12.27 12.27 0 0 0 1085.1 397z" fill="none" />
    </clipPath>
  </defs>
  <g style="isolation:isolate">
    <g id="Background">
      <rect class="cls-3" x="649.46" width="298.45" height="512.27" rx="149.23" ry="149.23" />
      <rect class="cls-3" x="1287.92" width="298.45" height="512.27" rx="149.23" ry="149.23" />
      <path class="cls-4" d="M1444.72 209.78h284.1a149.28 149.28 0 0 0-142.05-103.41 149.28 149.28 0 0 0-142.05 103.41z" transform="translate(-149.62 -106.37)" />
      <path class="cls-5" d="M1392.15 74.69h90" />
      <path class="cls-6" d="M1306.37 461.82a46.49 46.49 0 0 1 64-39.76 103.65 103.65 0 0 1 194.07-11.69 61.75 61.75 0 0 1 88.07 51.46z" transform="translate(-149.62 -106.37)" />
      <path class="cls-4" d="M806.26 209.78h284.1a149.28 149.28 0 0 0-142.05-103.41 149.28 149.28 0 0 0-142.05 103.41z" transform="translate(-149.62 -106.37)" />
      <path class="cls-5" d="M753.69 74.69h90" />
      <rect class="cls-3" x="30.42" width="298.45" height="512.27" rx="149.23" ry="149.23" />
      <path class="cls-4" d="M187.22 209.78h284.1a149.28 149.28 0 0 0-142.05-103.41 149.28 149.28 0 0 0-142.05 103.41z" transform="translate(-149.62 -106.37)" />
      <path class="cls-5" d="M134.64 74.69h90.01" />
      <path class="cls-6" d="M987.73 304.24a42.64 42.64 0 0 1 18.27 4.13 71.8 71.8 0 0 1 137.48 28.94c0 2.26-.13 4.49-.34 6.69H945a42.85 42.85 0 0 1 42.73-39.76zM258.56 490.62a27.22 27.22 0 0 1 11.66 2.64A45.84 45.84 0 0 1 358 511.73c0 1.44-.09 2.87-.22 4.27H231.29a27.36 27.36 0 0 1 27.27-25.38zM482.56 246.62a27.22 27.22 0 0 1 11.66 2.64A45.84 45.84 0 0 1 582 267.73c0 1.44-.09 2.87-.22 4.27H455.29a27.36 27.36 0 0 1 27.27-25.38zM1661.2 531.43a17.77 17.77 0 0 0-7.61 1.72 29.92 29.92 0 0 0-57.3 12.06c0 .94.06 1.87.14 2.79H1679a17.86 17.86 0 0 0-17.8-16.57zM896.93 445.32a17.62 17.62 0 0 0-7.55 1.71 29.67 29.67 0 0 0-56.8 12c0 .93.06 1.85.14 2.77h81.86a17.71 17.71 0 0 0-17.65-16.48zM149.62 397a39.81 39.81 0 0 1 54.79-34 88.75 88.75 0 0 1 166.17-10A52.88 52.88 0 0 1 446 397z" transform="translate(-149.62 -106.37)" />
    </g>
    <g id="Foreground">
      <path style="mix-blend-mode:multiply" fill="url(#linear-gradient)" d="M64.38 753.76h211.59v30.72H64.38z" />
      <path style="mix-blend-mode:multiply" fill="url(#linear-gradient-2)" d="M881.38 762.63h263.15v21.82H881.38z" />
      <path style="mix-blend-mode:multiply" fill="url(#linear-gradient-3)" d="M1314.38 770.63h120.15v12.82h-120.15z" />
      <rect class="cls-10" x="220.47" y="290.63" width="727.28" height="494" rx="12.27" ry="12.27" />
      <path d="M382.36 397H732v494H382.36a12.27 12.27 0 0 1-12.27-12.27V409.27A12.27 12.27 0 0 1 382.36 397z" transform="translate(-149.62 -106.37)" style="mix-blend-mode:multiply" fill="url(#linear-gradient-4)" opacity=".2" />
      <path style="mix-blend-mode:multiply" opacity=".7" fill="url(#linear-gradient-5)" d="M847.27 342.09l-51.89-51.46h-42.32v51.46h94.21z" />
      <path style="mix-blend-mode:multiply" fill="url(#linear-gradient-6)" opacity=".5" d="M947.74 421.85l-51.46-37.73V499.9h51.46v-78.05z" />
      <path style="mix-blend-mode:multiply" fill="url(#linear-gradient-7)" opacity=".5" d="M628.36 330.6L434.53 524.42l141.94 260.21h289.8l46.31-46.31L628.36 330.6z" />
      <rect class="cls-4" x="704.8" y="493.76" width="423.07" height="299.88" rx="24.28" ry="24.28" transform="rotate(90 894.71 515.7)" />
      <path class="cls-6" transform="rotate(90 894.71 511.41)" d="M748.65 505.06h335.37v268.69H748.65z" />
      <path class="cls-15" d="M751.59 347.02h30.25" />
      <circle class="cls-15" cx="766.72" cy="724.08" r="11.23" />
      <path class="cls-16" d="M1399 658.24a19.11 19.11 0 1 1 0-38.21M1270.44 658.24a19.11 19.11 0 1 1 0-38.21" transform="translate(-149.62 -106.37)" />
      <path class="cls-17" d="M1132.1 784.38l-55.11-253.85-20.79-.04-40.81 253.89h116.71z" />
      <path style="mix-blend-mode:multiply" fill="url(#linear-gradient-8)" opacity=".5" d="M1056.2 530.49l.05 253.89h119.25l-60.27-253.85-59.03-.04z" />
      <path class="cls-4" d="M1350.38 784.38l-40.82-253.23-253.36-.66 40.98 253.89h253.2z" />
      <path class="cls-19" d="M1319.28 591.66l-9.83-61.17H1056.2l9.89 61.17h253.19z" />
      <path class="cls-20" d="M1270.44 620a19.11 19.11 0 1 1 0 38.21M1399 620a19.11 19.11 0 1 1 0 38.21" transform="translate(-149.62 -106.37)" />
      <path class="cls-17" d="M664.72 395.27h181.82v144.08H664.72z" />
      <path class="cls-3" d="M683.46 436.96v230.52h183.6l.07-230.52H683.46z" />
      <path class="cls-4" d="M794.97 546.08h55.43v103.97h-55.43z" />
      <path class="cls-4" d="M700.66 528.32H850.3v103.43H700.66zM827.14 491.53h8.84v19.36h-8.84z" />
      <path class="cls-6" d="M700.66 528.32H850.3v14.37H700.66z" />
      <path class="cls-21" d="M793.45 660.37V526.38M696.76 560.55h159.43M696.76 543.4h159.43M697.14 578.12h159.44M696.14 596.16h159.43M697.03 614.14h159.44M695.67 631.87h159.44" />
      <circle class="cls-6" cx="885.47" cy="592" r="26.18" transform="rotate(-45 682.266 719.426)" />
      <path class="cls-6" d="M785.53 464.44h9.45v46.51h-9.45z" />
      <path class="cls-19" d="M799.94 483.03h9.03v27.92h-9.03z" />
      <path class="cls-10" d="M813.55 500.89h8.88v9.99h-8.88z" />
      <path class="cls-19" d="M904 573.49a26.1 26.1 0 0 0-18.51-7.67v25.9l26.15-.84a26.08 26.08 0 0 0-7.64-17.39z" transform="translate(-149.62 -106.37)" />
      <path class="cls-10" d="M664.72 395.27h181.82v18.01H664.72z" />
      <circle class="cls-6" cx="674.16" cy="404.7" r="4.29" />
      <path class="cls-6" d="M1273.5 455.3a120.8 120.8 0 1 1 120.8-120.8 120.94 120.94 0 0 1-120.8 120.8z" transform="translate(-149.62 -106.37)" />
      <path class="cls-22" d="M1273.5 222A112.5 112.5 0 1 1 1161 334.5 112.5 112.5 0 0 1 1273.5 222m0-16.6a129.1 129.1 0 1 0 91.29 37.81 128.25 128.25 0 0 0-91.29-37.81z" transform="translate(-149.62 -106.37)" />
      <path class="cls-23" d="M1124.74 235.92l39.81-39.81M1124.74 235.92l-51.06-51.06" />
      <circle class="cls-4" cx="1123.88" cy="134.67" r="7.63" />
      <circle class="cls-4" cx="1123.88" cy="321.6" r="7.63" />
      <circle class="cls-4" cx="1217.34" cy="228.13" r="7.63" />
      <circle class="cls-4" cx="1030.41" cy="228.13" r="7.63" />
      <path d="M1257.92 237.58a112.5 112.5 0 0 1 87 183.88 112.5 112.5 0 1 0-158.33-158.33 112 112 0 0 1 71.33-25.55z" transform="translate(-149.62 -106.37)" style="mix-blend-mode:multiply" fill="url(#linear-gradient-9)" />
      <path style="mix-blend-mode:multiply" fill="url(#linear-gradient-10)" opacity=".4" d="M834.53 325.8H800.8l115.78 115.78V400.7l-82.05-74.9z" />
      <path style="mix-blend-mode:multiply" fill="url(#linear-gradient-11)" opacity=".4" d="M916.87 689.44l-58.03 59.17h14.57l43.46-42.02v-17.15z" />
      <path class="cls-4" d="M885.53 591.73v26.45a26.16 26.16 0 0 0 26-24.16z" transform="translate(-149.62 -106.37)" />
      <path class="cls-10" d="M885.47 591.72l25.85 4.39a26.29 26.29 0 0 0-.95-12.17z" transform="translate(-149.62 -106.37)" />
      <path style="mix-blend-mode:multiply" fill="url(#linear-gradient-12)" d="M509.12 548.79l-118.98 16.32-11.93-118.31 115.05-15.77 15.86 117.76z" />
      <path class="cls-28" d="M516.72 508.15l-18.97-63.79-3.58-26.15-117.67 16.14 3.58 26.14 25.31 87.06 90.9-12.46 20.43-26.94z" />
      <path class="cls-29" d="M438.08 472.46l27.89 30.63M461.33 469.28l-18.61 37M432.06 490.78l39.83-5.46" />
      <path fill="#ffd364" d="M496.27 535.1l20.47-26.96-23.72 3.25 3.25 23.71z" />
      <path style="mix-blend-mode:color-burn" fill="url(#linear-gradient-13)" opacity=".4" d="M516.72 508.15l-18.97-63.79-3.58-26.15-117.67 16.14 3.58 26.14 25.31 87.06 90.9-12.46 20.43-26.94z" />
      <g>
        <path d="M1433.91 493.8H1359a33.28 33.28 0 0 0-33.28 33.28 33.28 33.28 0 0 0 25.58 32.37V577l16.7-16.64h65.94a33.28 33.28 0 0 0 33.28-33.28 33.28 33.28 0 0 0-33.31-33.28z" transform="translate(-149.62 -106.37)" style="mix-blend-mode:multiply" fill="#4285f4" />
        <path class="cls-33" d="M1206.93 411.01h78.49M1206.93 431.15h78.49" />
      </g>
      <path style="mix-blend-mode:multiply" fill="url(#linear-gradient-14)" opacity=".5" d="M284.5 422.56l-33.59 33.59v242.29l45.03-43.53-11.44-232.35z" />
      <g>
        <path stroke-width="4.67" stroke-linejoin="round" stroke-linecap="round" stroke="#fff" fill="none" d="M307.92 437.91h8.6v54.45" />
        <path class="cls-36" transform="rotate(-90 317.37 670.32)" d="M362.8 637.59h165.13v22.21H362.8z" />
        <path transform="rotate(-90 317.37 681.43)" style="mix-blend-mode:multiply" fill="url(#linear-gradient-15)" opacity=".4" d="M373.91 648.69h142.92v22.21H373.91z" />
        <path class="cls-6" d="M456.12 731.26l-9.43 28.9a1.31 1.31 0 0 1-2.48 0l-10.07-28.93z" transform="translate(-149.62 -106.37)" />
        <path class="cls-36" d="M442.36 754.88l1.85 5.31a1.31 1.31 0 0 0 2.48 0l1.71-5.26z" transform="translate(-149.62 -106.37)" />
        <path class="cls-36" d="M418.42 551.08h67.43v28.66h-67.43a14.26 14.26 0 0 1-14.26-14.26v-.15a14.26 14.26 0 0 1 14.26-14.26z" transform="rotate(90 423.375 437.415)" />
        <path d="M418.42 551.08h67.43v28.66h-67.43a14.26 14.26 0 0 1-14.26-14.26v-.15a14.26 14.26 0 0 1 14.26-14.26z" transform="rotate(90 423.375 437.415)" style="mix-blend-mode:multiply" fill="url(#linear-gradient-16)" opacity=".4" />
      </g>
      <rect class="cls-10" x="146.71" y="527.05" width="200.69" height="39.45" rx="19.73" ry="19.73" />
      <path transform="rotate(-90 322.645 970.395)" style="mix-blend-mode:multiply" fill="url(#linear-gradient-17)" opacity=".2" d="M446.4 819.13h8.47v259.28h-8.47z" />
      <g>
        <path class="cls-28" d="M413.59 820.79h201.36v25.81H413.59z" />
        <path style="mix-blend-mode:multiply" fill="url(#linear-gradient-18)" opacity=".4" d="M413.59 820.79h201.36v25.81H413.59z" />
        <path class="cls-4" d="M413.59 846.6l-38.27-12.48 38.27-13.33v25.81z" />
        <path class="cls-41" d="M385.86 830.45l-10.54 3.67 10.51 3.41.03-7.08z" />
        <path class="cls-22" d="M764.69 927.15h-14V953h14a12.91 12.91 0 0 0 0-25.82z" transform="translate(-149.62 -106.37)" />
        <path class="cls-4" d="M598.79 820.79h5.91v25.82h-5.91z" />
      </g>
      <path stroke="#e1e2e6" stroke-width="3.24" stroke-miterlimit="10" stroke-linecap="round" fill="none" d="M421.15 833.53h168.74" />
      <g>
        <path stroke-width="8.85" stroke="#fbbc05" stroke-linecap="square" stroke-linejoin="round" fill="none" d="M1438.61 716.94l66-28.46" />
        <path stroke="#2a2c33" stroke-width="8.85" stroke-linejoin="round" stroke-linecap="round" fill="none" d="M1470.3 636.72l-10.85 27.33" />
        <path class="cls-6" d="M1588.53 885.06a62.67 62.67 0 1 1 58.25-39.54 62.36 62.36 0 0 1-58.25 39.54z" transform="translate(-149.62 -106.37)" />
        <path class="cls-28" d="M1588.56 764.68a57.7 57.7 0 1 1-53.63 36.4 57.52 57.52 0 0 1 53.63-36.4m0-10a67.71 67.71 0 1 0 25 4.79 67.56 67.56 0 0 0-25-4.79z" transform="translate(-149.62 -106.37)" />
        <path class="cls-28" transform="rotate(21.67 1822.347 299.971)" d="M1601.56 737.12h35.87v14.11h-35.87z" />
        <circle class="cls-4" cx="1605.59" cy="779.47" r="3.82" transform="rotate(-68.33 1452.5 836.499)" />
        <circle class="cls-4" cx="1571.08" cy="866.36" r="3.82" transform="rotate(-68.33 1417.981 923.397)" />
        <circle class="cls-4" cx="1631.78" cy="840.18" r="3.82" transform="rotate(-68.33 1478.69 897.208)" />
        <circle class="cls-4" cx="1544.89" cy="805.66" r="3.82" transform="rotate(-68.33 1391.8 862.693)" />
        <path d="M1600.16 775.19a57.69 57.69 0 0 1 15.32 98.19 57.68 57.68 0 1 0-63-96l1-.39a57.54 57.54 0 0 1 46.68-1.8z" transform="translate(-149.62 -106.37)" style="mix-blend-mode:multiply" fill="url(#linear-gradient-19)" />
        <path class="cls-36" d="M1582.63 820.27l15-30.87a3.13 3.13 0 0 1 5.84 2.19l-9 33.1a6.33 6.33 0 0 1-12.21-3.32 6.76 6.76 0 0 1 .37-1.1z" transform="translate(-149.62 -106.37)" />
      </g>
      <g>
        <path class="cls-46" d="M1382.68 740.17c-1.25-7.34 3.68-13.29 11-13.29s14.29 6 15.54 13.29-3.68 13.29-11 13.29M1398.25 753.62c9.95 0 19.39 8.07 21.08 18s-5 18-14.95 18-19.39-8.07-21.08-18" transform="translate(-149.62 -106.37)" />
        <path class="cls-46" d="M1280.72 631.67l8.87-11.5 10.06 63.15" />
        <path class="cls-47" d="M1105.16 623.59h81.03M1112.28 666.77h83.16M1120.47 709.96h185.21M1127.59 753.14h185.56" />
      </g>
      <path style="mix-blend-mode:multiply" fill="url(#linear-gradient-20)" d="M174.38 527.63h46v39h-46z" />
      <g clip-path="url(#clip-path)">
        <path class="cls-41" d="M1133.12 586.81L893.84 347.53l19.41-19.41 239.28 239.28zM1152.53 712l-19.41-19.41L893.84 931.9l19.41 19.41z" transform="translate(-149.62 -106.37)" />
      </g>
    </g>
  </g>
</svg>
