<svg xmlns="http://www.w3.org/2000/svg" width="32" height="32" viewBox="0 0 32 32">
  <g fill="none" fill-rule="evenodd" transform="translate(4 4)">
    <path fill="#757575" d="M12,24 C5.372583,24 0,18.627417 0,12 C0,5.372583 5.372583,0 12,0 C18.627417,0 24,5.372583 24,12 C24,18.627417 18.627417,24 12,24 Z M4,4 L4,8 L6,8 L6,6 L8,6 L8,4 L4,4 Z M20,20 L20,16 L18,16 L18,18 L16,18 L16,20 L20,20 Z M6,9.94754846 L6,14.0524515 L8.66666667,14.0524515 L12,17.4732041 L12,6.5267959 L8.66666667,9.94754846 L6,9.94754846 Z M15,12 C15,10.7890536 14.32,9.74914481 13.3333333,9.24287343 L13.3333333,14.7502851 C14.32,14.2508552 15,13.2109464 15,12 Z M13.3333333,6 L13.3333333,7.40935006 C15.26,7.9977195 16.6666667,9.83124287 16.6666667,12 C16.6666667,14.1687571 15.26,16.0022805 13.3333333,16.5906499 L13.3333333,18 C16.0066667,17.377423 18,14.9281642 18,12 C18,9.0718358 16.0066667,6.62257697 13.3333333,6 Z"/>
  </g>
</svg>
