<?xml version="1.0"?>
<!DOCTYPE svg PUBLIC "-//W3C//DTD SVG 1.1//EN" 
         "http://www.w3.org/Graphics/SVG/1.1/DTD/svg11.dtd">
<svg xmlns="http://www.w3.org/2000/svg"
     xmlns:xlink="http://www.w3.org/1999/xlink">
<path d="M117.151 349.592 C117.151 349.592 99.886 359.641 129.452 363.032 C165.276 367.122 183.582 366.533 223.048 359.073 C223.048 359.073 233.445 365.577 247.940 371.210 C159.439 409.127 47.644 369.013 117.151 349.592 L117.151 349.592 z "
      style="stroke-width:1;fill:rgb(0,116,189);stroke:none"/>
<path d="M106.331 300.104 C106.331 300.104 86.964 314.443 116.552 317.501 C154.823 321.452 185.035 321.776 237.344 311.709 C237.344 311.709 244.562 319.041 255.929 323.048 C148.943 354.342 29.782 325.510 106.331 300.104 L106.331 300.104 z "
      style="stroke-width:1;fill:rgb(0,116,189);stroke:none"/>
<path d="M197.494 216.145 C219.312 241.260 191.773 263.842 191.773 263.842 Q247.140 235.265 221.718 199.462 C197.966 166.089 179.756 149.511 278.341 92.338 C278.342 92.338 123.587 130.979 197.494 216.145 L197.494 216.145 z "
      style="stroke-width:1;fill:rgb(234,45,46);stroke:none"/>
<path d="M314.542 386.202 C314.542 386.202 327.323 396.738 300.465 404.886 C249.394 420.355 87.861 425.021 42.995 405.505 C26.878 398.485 57.116 388.755 66.630 386.700 C76.550 384.554 82.214 384.946 82.214 384.946 C64.277 372.315 -33.721 409.753 32.442 420.490 C212.871 449.736 361.337 407.317 314.542 386.202 L314.542 386.202 z "
      style="stroke-width:1;fill:rgb(0,116,189);stroke:none"/>
<path d="M125.460 248.822 C125.460 248.822 43.305 268.341 96.368 275.435 C118.780 278.434 163.431 277.744 205.053 274.252 C239.059 271.398 273.186 265.294 273.186 265.294 Q261.204 270.434 252.529 276.354 C169.085 298.301 7.917 288.080 54.322 265.642 C93.549 246.665 125.460 248.822 125.460 248.822 L125.460 248.822 z "
      style="stroke-width:1;fill:rgb(0,116,189);stroke:none"/>
<path d="M272.846 331.198 C357.664 287.135 318.443 244.786 291.069 250.490 C284.375 251.887 281.372 253.097 281.372 253.097 Q283.866 249.190 288.615 247.509 C342.770 228.479 384.409 303.655 271.151 333.428 C271.150 333.428 272.453 332.248 272.846 331.198 L272.846 331.198 z "
      style="stroke-width:1;fill:rgb(0,116,189);stroke:none"/>
<path d="M221.719 0.000 C221.719 0.000 268.682 46.990 177.162 119.227 C103.769 177.196 160.428 210.236 177.136 248.005 C134.291 209.352 102.865 175.321 123.944 143.653 C154.898 97.174 240.663 74.632 221.719 0.000 L221.719 0.000 z "
      style="stroke-width:1;fill:rgb(234,45,46);stroke:none"/>
<path d="M133.799 450.637 C215.196 455.841 340.225 447.741 343.184 409.222 C343.184 409.222 337.496 423.824 275.908 435.410 C206.427 448.491 120.711 446.968 69.892 438.577 C69.892 438.577 80.303 447.194 133.799 450.637 L133.799 450.637 z "
      style="stroke-width:1;fill:rgb(0,116,189);stroke:none"/>
<path d="M339.426 519.716 L336.947 519.716 L336.947 518.331 L343.623 518.331 L343.623 519.716 L341.154 519.716 L341.154 526.644 L339.425 526.644 L339.425 519.716 L339.426 519.716 L339.426 519.716 z M352.756 520.067 L352.724 520.067 L350.263 526.643 L349.131 526.643 L346.685 520.067 L346.660 520.067 L346.660 526.643 L345.022 526.643 L345.022 518.330 L347.424 518.330 L349.688 524.215 L351.959 518.330 L354.347 518.330 L354.347 526.643 L352.757 526.643 L352.757 520.067 L352.756 520.067 z "
      style="stroke-width:1;fill:rgb(234,45,46);stroke:none"/>
<path d="M120.461 597.813 C112.785 604.467 104.668 608.209 97.382 608.209 C87.004 608.209 81.375 601.973 81.375 591.993 C81.375 581.190 87.402 573.283 111.538 573.283 L120.461 573.283 L120.461 597.813 L120.461 597.813 L120.461 597.813 z M141.650 621.716 L141.650 547.720 C141.650 528.805 130.863 516.324 104.868 516.324 C89.700 516.324 76.401 520.074 65.590 524.849 L68.701 537.955 C77.216 534.828 88.227 531.924 99.038 531.924 C114.016 531.924 120.461 537.955 120.461 550.429 L120.461 559.785 L112.976 559.785 C76.593 559.785 60.178 573.895 60.178 595.121 C60.178 613.406 70.997 623.803 91.363 623.803 C104.451 623.803 114.233 618.398 123.364 610.488 L125.027 621.716 L141.650 621.716 L141.650 621.716 z "
      style="stroke-width:1;fill:rgb(234,45,46);stroke:none"/>
<path d="M212.362 621.716 L185.939 621.716 L154.132 518.214 L177.209 518.214 L196.952 581.814 L201.343 600.923 C211.308 573.284 218.375 545.222 221.909 518.214 L244.354 518.214 C238.352 552.294 227.523 589.706 212.362 621.716 L212.362 621.716 z "
      style="stroke-width:1;fill:rgb(234,45,46);stroke:none"/>
<path d="M313.755 597.813 C306.054 604.467 297.935 608.209 290.669 608.209 C280.287 608.209 274.658 601.973 274.658 591.993 C274.658 581.190 280.697 573.283 304.812 573.283 L313.754 573.283 L313.754 597.813 L313.755 597.813 L313.755 597.813 z M334.951 621.716 L334.951 547.720 C334.951 528.805 324.133 516.324 298.162 516.324 C282.974 516.324 269.678 520.074 258.867 524.849 L261.983 537.955 C270.502 534.828 281.528 531.924 292.338 531.924 C307.298 531.924 313.754 537.955 313.754 550.429 L313.754 559.785 L306.269 559.785 C269.878 559.785 253.468 573.895 253.468 595.121 C253.468 613.406 264.272 623.803 284.637 623.803 C297.736 623.803 307.499 618.398 316.655 610.488 L318.329 621.716 L334.951 621.716 L334.951 621.716 z "
      style="stroke-width:1;fill:rgb(234,45,46);stroke:none"/>
<path d="M36.941 639.306 C30.904 648.127 21.141 655.115 10.462 659.055 L0.000 646.731 C8.135 642.553 15.103 635.819 18.345 629.549 C21.141 623.960 22.305 616.776 22.305 599.578 L22.305 481.398 L44.824 481.398 L44.824 597.949 C44.824 620.950 42.988 630.249 36.941 639.306 L36.941 639.306 z "
      style="stroke-width:1;fill:rgb(234,45,46);stroke:none"/>
<path d="M117.151 349.592 C117.151 349.592 99.886 359.641 129.452 363.032 C165.276 367.122 183.582 366.533 223.048 359.073 C223.048 359.073 233.445 365.577 247.940 371.210 C159.439 409.127 47.644 369.013 117.151 349.592 L117.151 349.592 z "
      style="stroke-width:1;fill:rgb(0,116,189);stroke:none"/>
<path d="M106.331 300.104 C106.331 300.104 86.964 314.443 116.552 317.501 C154.823 321.452 185.035 321.776 237.344 311.709 C237.344 311.709 244.562 319.041 255.929 323.048 C148.943 354.342 29.782 325.510 106.331 300.104 L106.331 300.104 z "
      style="stroke-width:1;fill:rgb(0,116,189);stroke:none"/>
<path d="M197.494 216.145 C219.312 241.260 191.773 263.842 191.773 263.842 Q247.140 235.265 221.718 199.462 C197.966 166.089 179.756 149.511 278.341 92.338 C278.342 92.338 123.587 130.979 197.494 216.145 L197.494 216.145 z "
      style="stroke-width:1;fill:rgb(234,45,46);stroke:none"/>
<path d="M314.542 386.202 C314.542 386.202 327.323 396.738 300.465 404.886 C249.394 420.355 87.861 425.021 42.995 405.505 C26.878 398.485 57.116 388.755 66.630 386.700 C76.550 384.554 82.214 384.946 82.214 384.946 C64.277 372.315 -33.721 409.753 32.442 420.490 C212.871 449.736 361.337 407.317 314.542 386.202 L314.542 386.202 z "
      style="stroke-width:1;fill:rgb(0,116,189);stroke:none"/>
<path d="M125.460 248.822 C125.460 248.822 43.305 268.341 96.368 275.435 C118.780 278.434 163.431 277.744 205.053 274.252 C239.059 271.398 273.186 265.294 273.186 265.294 Q261.204 270.434 252.529 276.354 C169.085 298.301 7.917 288.080 54.322 265.642 C93.549 246.665 125.460 248.822 125.460 248.822 L125.460 248.822 z "
      style="stroke-width:1;fill:rgb(0,116,189);stroke:none"/>
<path d="M272.846 331.198 C357.664 287.135 318.443 244.786 291.069 250.490 C284.375 251.887 281.372 253.097 281.372 253.097 Q283.866 249.190 288.615 247.509 C342.770 228.479 384.409 303.655 271.151 333.428 C271.150 333.428 272.453 332.248 272.846 331.198 L272.846 331.198 z "
      style="stroke-width:1;fill:rgb(0,116,189);stroke:none"/>
<path d="M221.719 0.000 C221.719 0.000 268.682 46.990 177.162 119.227 C103.769 177.196 160.428 210.236 177.136 248.005 C134.291 209.352 102.865 175.321 123.944 143.653 C154.898 97.174 240.663 74.632 221.719 0.000 L221.719 0.000 z "
      style="stroke-width:1;fill:rgb(234,45,46);stroke:none"/>
<path d="M133.799 450.637 C215.196 455.841 340.225 447.741 343.184 409.222 C343.184 409.222 337.496 423.824 275.908 435.410 C206.427 448.491 120.711 446.968 69.892 438.577 C69.892 438.577 80.303 447.194 133.799 450.637 L133.799 450.637 z "
      style="stroke-width:1;fill:rgb(0,116,189);stroke:none"/>
<path d="M339.426 519.716 L336.947 519.716 L336.947 518.331 L343.623 518.331 L343.623 519.716 L341.154 519.716 L341.154 526.644 L339.425 526.644 L339.425 519.716 L339.426 519.716 L339.426 519.716 z M352.756 520.067 L352.724 520.067 L350.263 526.643 L349.131 526.643 L346.685 520.067 L346.660 520.067 L346.660 526.643 L345.022 526.643 L345.022 518.330 L347.424 518.330 L349.688 524.215 L351.959 518.330 L354.347 518.330 L354.347 526.643 L352.757 526.643 L352.757 520.067 L352.756 520.067 z "
      style="stroke-width:1;fill:rgb(234,45,46);stroke:none"/>
<path d="M120.461 597.813 C112.785 604.467 104.668 608.209 97.382 608.209 C87.004 608.209 81.375 601.973 81.375 591.993 C81.375 581.190 87.402 573.283 111.538 573.283 L120.461 573.283 L120.461 597.813 L120.461 597.813 L120.461 597.813 z M141.650 621.716 L141.650 547.720 C141.650 528.805 130.863 516.324 104.868 516.324 C89.700 516.324 76.401 520.074 65.590 524.849 L68.701 537.955 C77.216 534.828 88.227 531.924 99.038 531.924 C114.016 531.924 120.461 537.955 120.461 550.429 L120.461 559.785 L112.976 559.785 C76.593 559.785 60.178 573.895 60.178 595.121 C60.178 613.406 70.997 623.803 91.363 623.803 C104.451 623.803 114.233 618.398 123.364 610.488 L125.027 621.716 L141.650 621.716 L141.650 621.716 z "
      style="stroke-width:1;fill:rgb(234,45,46);stroke:none"/>
<path d="M212.362 621.716 L185.939 621.716 L154.132 518.214 L177.209 518.214 L196.952 581.814 L201.343 600.923 C211.308 573.284 218.375 545.222 221.909 518.214 L244.354 518.214 C238.352 552.294 227.523 589.706 212.362 621.716 L212.362 621.716 z "
      style="stroke-width:1;fill:rgb(234,45,46);stroke:none"/>
<path d="M313.755 597.813 C306.054 604.467 297.935 608.209 290.669 608.209 C280.287 608.209 274.658 601.973 274.658 591.993 C274.658 581.190 280.697 573.283 304.812 573.283 L313.754 573.283 L313.754 597.813 L313.755 597.813 L313.755 597.813 z M334.951 621.716 L334.951 547.720 C334.951 528.805 324.133 516.324 298.162 516.324 C282.974 516.324 269.678 520.074 258.867 524.849 L261.983 537.955 C270.502 534.828 281.528 531.924 292.338 531.924 C307.298 531.924 313.754 537.955 313.754 550.429 L313.754 559.785 L306.269 559.785 C269.878 559.785 253.468 573.895 253.468 595.121 C253.468 613.406 264.272 623.803 284.637 623.803 C297.736 623.803 307.499 618.398 316.655 610.488 L318.329 621.716 L334.951 621.716 L334.951 621.716 z "
      style="stroke-width:1;fill:rgb(234,45,46);stroke:none"/>
<path d="M36.941 639.306 C30.904 648.127 21.141 655.115 10.462 659.055 L0.000 646.731 C8.135 642.553 15.103 635.819 18.345 629.549 C21.141 623.960 22.305 616.776 22.305 599.578 L22.305 481.398 L44.824 481.398 L44.824 597.949 C44.824 620.950 42.988 630.249 36.941 639.306 L36.941 639.306 z "
      style="stroke-width:1;fill:rgb(234,45,46);stroke:none"/>
</svg>
