<svg xmlns="http://www.w3.org/2000/svg" width="48" height="48" viewBox="0 0 48 48"><defs><style>.a{fill:#666;}.b{fill:none;stroke:#666;stroke-miterlimit:10;stroke-width:4px;}</style></defs><title>Untitled-1</title><path class="a" d="M35.25,14a.76.76,0,0,1,.75.75v25.5a.76.76,0,0,1-.75.75H18.75a.76.76,0,0,1-.75-.75V14.75a.76.76,0,0,1,.75-.75h16.5m0-4H18.75A4.77,4.77,0,0,0,14,14.75v25.5A4.77,4.77,0,0,0,18.75,45h16.5A4.77,4.77,0,0,0,40,40.25V14.75A4.77,4.77,0,0,0,35.25,10Z"/><path class="b" d="M9,38V9.75A4.77,4.77,0,0,1,13.75,5H32.91"/></svg>