<svg xmlns="http://www.w3.org/2000/svg" width="48px" height="48px"
   viewBox="0 0 48 48" style="enable-background:new 0 0 48 48;" xml:space="preserve">
<style type="text/css">
	.st0{fill:#3A589B;}
	.st1{fill:#FFFFFF;}
</style>
<path class="st0" d="M43.5,48h-39C2,48,0,46,0,43.5v-39C0,2,2,0,4.5,0h39C46,0,48,2,48,4.5v39C48,46,46,48,43.5,48z"/>
<g>
  <path class="st1" d="M39.4,29.4l0.9-7.3h-7.2v-4.7c0-2.1,0.6-3.5,3.6-3.5h3.8V7.5c-0.7-0.1-2.9-0.3-5.6-0.3c-5.5,0-9.3,3.4-9.3,9.6
		v5.3h-6.2v7.3h6.2V48h7.5V29.4H39.4z"/>
</g>
</svg>