<svg width="44" height="39" xmlns="http://www.w3.org/2000/svg" xmlns:xlink="http://www.w3.org/1999/xlink"><defs><path d="M14 3C7.929 3 3 7.929 3 14s4.929 11 11 11 11-4.929 11-11S20.071 3 14 3zm0-3c7.728 0 14 6.272 14 14s-6.272 14-14 14S0 21.728 0 14 6.272 0 14 0z" id="a"/><path d="M14 .667C21.36.667 27.333 6.64 27.333 14S21.36 27.333 14 27.333.667 21.36.667 14 6.64.667 14 .667zM3.333 14H9.2c4.543.029 6.562 2.308 6.058 6.836H10.65v3.293c1.054.349 2.18.538 3.35.538 5.887 0 10.667-4.78 10.667-10.667 0-.217-.007-.433-.02-.647-.876 1.32-2.203 1.98-3.98 1.98-2.85 0-4.275-1.222-4.275-3.665h-4.998c-.365-3.638.91-5.457 3.827-5.457 0-1.3.436-2.13 1.082-2.628A10.69 10.69 0 0 0 14 3.333C8.113 3.333 3.333 8.113 3.333 14z" id="c"/></defs><g transform="translate(-2 -2)" fill="none" fill-rule="evenodd"><path d="M33.235 28.659l11.432-.566a1.157 1.157 0 0 1 1.157 1.16 1.142 1.142 0 0 1-.128.515L40.52 39.794a1.174 1.174 0 0 1-1.977.163l-6.257-9.461a1.144 1.144 0 0 1 .247-1.612c.203-.148.45-.227.702-.225z" fill="#EE675C"/><g transform="translate(11 9)"><mask id="b" fill="#fff"><use xlink:href="#a"/></mask><use fill="#000" fill-rule="nonzero" xlink:href="#a"/><g mask="url(#b)" fill="#1A73E8"><path d="M-2-2h32v32H-2z"/></g><use fill="#8AB4F8" fill-rule="nonzero" xlink:href="#c"/></g><circle fill="#81C995" cx="9" cy="38.398" r="2"/><path d="M6.592 5.039c4.904-4.183 12.017-3.946 16.689.284.464.42 1.274 1.412-.187 2.658L6.321 22.291c-1.324 1.13-1.914.198-2.202-.254C.655 16.597 1.616 9.284 6.592 5.039z" fill="#FDDF8B" style="mix-blend-mode:screen"/></g></svg>