<svg xmlns="http://www.w3.org/2000/svg" width="48px" height="48px" viewBox="0 0 48 48">
<style type="text/css">
	.st0{fill:#3AAAE1;}
	.st1{fill:#FFFFFF;}
</style>
<path class="st0" d="M43.5,48h-39C2,48,0,46,0,43.5v-39C0,2,2,0,4.5,0h39C46,0,48,2,48,4.5v39C48,46,46,48,43.5,48z"/>
<path class="st1" d="M39.3,15.5c-1.1,0.5-2.3,0.8-3.5,0.9c1.2-0.7,2.2-1.9,2.6-3.3c-1.1,0.7-2.5,1.2-3.8,1.5
  c-1.1-1.1-2.6-1.9-4.4-1.9c-3.3,0-6,2.7-6,6c0,0.5,0.1,0.9,0.1,1.3c-4.9-0.3-9.4-2.6-12.4-6.3c-0.5,0.9-0.8,1.9-0.8,3
  c0,2,1.1,3.9,2.7,5c-1,0-1.9-0.3-2.7-0.8v0.1c0,2.9,2,5.3,4.8,5.9c-0.5,0.1-1.1,0.2-1.6,0.2c-0.4,0-0.8-0.1-1.1-0.1
  c0.8,2.4,3,4.1,5.6,4.2c-2,1.6-4.7,2.5-7.4,2.5c-0.5,0-1,0-1.4-0.1c2.7,1.7,5.8,2.7,9.2,2.7c11,0,17-9.1,17-17c0-0.3,0-0.5,0-0.8
	C37.5,17.7,38.5,16.7,39.3,15.5L39.3,15.5z"/>
</svg>