<svg xmlns="http://www.w3.org/2000/svg" viewBox="0 0 64 64"><g fill="none" fill-rule="evenodd"><path d="M0 0h59.077v59.077H0z"/><path fill="#1A73E8" d="M33.23.025a6.106 6.106 0 0 1 5.072 2.683 6.051 6.051 0 0 1 2.313-.443 6.156 6.156 0 0 1 6.154 6.153v.69a6.156 6.156 0 0 1 7.385 6.03v14.4H49.23v-14.4c0-.689-.542-1.23-1.231-1.23-.69 0-1.23.541-1.23 1.23v14.4h-4.924V8.418c0-.689-.541-1.23-1.23-1.23-.69 0-1.231.541-1.231 1.23v21.12h-4.923V6.178c0-.689-.542-1.23-1.231-1.23-.69 0-1.231.541-1.231 1.23v23.36h-4.923V11.791c0-.69-.542-1.231-1.23-1.231-.69 0-1.232.566-1.232 1.23v31.68l-13.169-6.965-1.255 1.107 14.424 15.016c.936.96 2.216 1.526 3.545 1.526H32v4.923h-3.815a9.948 9.948 0 0 1-7.114-3.028L3.1 37.317l5.096-4.505a4.928 4.928 0 0 1 5.563-.664l5.932 3.15V11.791a6.156 6.156 0 0 1 6.154-6.154c.419 0 .837.05 1.256.123.221-3.2 2.88-5.735 6.129-5.735z"/><path fill="#1A73E8" d="M52.302 41.698l2.313 5.071 2.314-5.07L62 39.384l-5.07-2.314L54.614 32l-2.313 5.07-5.071 2.315 5.07 2.313zM41.222 57.24L44.309 64l3.085-6.761 6.76-3.085-6.76-3.085-3.085-6.761-3.085 6.76-6.761 3.086 6.76 3.085z"/></g></svg>