<svg xmlns="http://www.w3.org/2000/svg" width="264" height="264" viewBox="0 0 264 264">
  <g fill="none" fill-rule="evenodd">
    <path stroke="#34A853" stroke-width="7" d="M118.2584,23.2273 C105.8004,28.4973 97.0594,40.8313 97.0594,55.2083 L97.0594,74.4203"/>
    <path stroke="#FBBC05" stroke-width="7" d="M161.005,36.4939 C154.834,26.8749 144.046,20.4999 131.769,20.4999 C126.976,20.4999 122.411,21.4719 118.258,23.2269"/>
    <path stroke="#EA4335" stroke-width="7" d="M166.4775,78.3582 L166.4775,55.2092 C166.4775,48.3172 164.4685,41.8942 161.0045,36.4942"/>
    <path stroke="#3E82F1" stroke-width="7" d="M166.4775,97.7624 L166.4775,78.3584"/>
    <path fill="#FBBC05" d="M151.8022,135.031 C151.5262,135.031 151.2512,134.964 151.0102,134.828 C144.3952,131.462 138.6762,130.034 131.8202,130.034 C124.9992,130.034 118.5222,131.632 112.6312,134.828 C111.8042,135.269 110.7702,134.964 110.2882,134.147 C109.8402,133.332 110.1502,132.277 110.9772,131.836 C117.3852,128.401 124.4132,126.634 131.8202,126.634 C139.1582,126.634 145.5662,128.231 152.5942,131.802 C153.4562,132.244 153.7662,133.263 153.3182,134.08 C153.0082,134.691 152.4222,135.031 151.8022,135.031"/>
    <path fill="#E74133" d="M102.5021,152.8816 C102.1581,152.8816 101.8131,152.7786 101.5031,152.5756 C100.7111,152.0306 100.5381,150.9776 101.0901,150.1946 C104.5001,145.4356 108.8411,141.6946 114.0091,139.0776 C124.8271,133.5696 138.6761,133.5356 149.5281,139.0436 C154.6961,141.6616 159.0371,145.3676 162.4481,150.0936 C162.9991,150.8416 162.8271,151.9296 162.0341,152.4736 C161.2421,153.0176 160.1741,152.8476 159.6231,152.0656 C156.5221,147.7806 152.5951,144.4156 147.9441,142.0686 C138.0561,137.0706 125.4121,137.0706 115.5591,142.1036 C110.8741,144.4836 106.9461,147.8836 103.8461,152.1676 C103.5701,152.6436 103.0531,152.8816 102.5021,152.8816"/>
    <path fill="#32A753" d="M124.0343,193.9197 C123.5863,193.9197 123.1383,193.7497 122.8283,193.4097 C119.8313,190.4517 118.2123,188.5477 115.9033,184.4337 C113.5263,180.2517 112.2863,175.1507 112.2863,169.6777 C112.2863,159.5797 121.0373,151.3517 131.7863,151.3517 C142.5343,151.3517 151.2853,159.5797 151.2853,169.6777 C151.2853,170.6297 150.5273,171.3777 149.5633,171.3777 C148.5983,171.3777 147.8403,170.6297 147.8403,169.6777 C147.8403,161.4497 140.6403,154.7517 131.7863,154.7517 C122.9323,154.7517 115.7313,161.4497 115.7313,169.6777 C115.7313,174.5727 116.8343,179.0957 118.9353,182.7677 C121.1403,186.6777 122.6563,188.3437 125.3093,190.9957 C125.9633,191.6757 125.9633,192.7297 125.3093,193.4097 C124.9303,193.7497 124.4823,193.9197 124.0343,193.9197"/>
    <path fill="#FBBC05" d="M148.7361,187.6296 C144.6361,187.6296 141.0191,186.6086 138.0561,184.6036 C132.9231,181.1696 129.8561,175.5936 129.8561,169.6776 C129.8561,168.7256 130.6141,167.9776 131.5791,167.9776 C132.5441,167.9776 133.3021,168.7256 133.3021,169.6776 C133.3021,174.4716 135.7821,178.9936 139.9851,181.7806 C142.4311,183.4136 145.2911,184.1946 148.7361,184.1946 C149.5631,184.1946 150.9411,184.0936 152.3191,183.8556 C153.2491,183.6856 154.1451,184.2976 154.3171,185.2496 C154.4891,186.1676 153.8691,187.0516 152.9051,187.2216 C150.9411,187.5956 149.2181,187.6296 148.7361,187.6296"/>
    <path fill="#3E82F1" d="M141.8113,194.6335 C141.6733,194.6335 141.5013,194.5995 141.3633,194.5655 C135.8853,193.0695 132.3023,191.0635 128.5473,187.4255 C123.7243,182.6995 121.0713,176.4095 121.0713,169.6775 C121.0713,164.1695 125.8263,159.6815 131.6823,159.6815 C137.5393,159.6815 142.2933,164.1695 142.2933,169.6775 C142.2933,173.3155 145.4973,176.2735 149.4593,176.2735 C153.4213,176.2735 156.6253,173.3155 156.6253,169.6775 C156.6253,156.8595 145.4283,146.4555 131.6483,146.4555 C121.8643,146.4555 112.9063,151.8275 108.8753,160.1565 C107.5323,162.9115 106.8433,166.1415 106.8433,169.6775 C106.8433,172.3295 107.0843,176.5115 109.1513,181.9515 C109.4953,182.8355 109.0483,183.8205 108.1523,184.1275 C107.2563,184.4675 106.2573,183.9915 105.9473,183.1415 C104.2593,178.6875 103.4323,174.2675 103.4323,169.6775 C103.4323,165.5975 104.2243,161.8915 105.7753,158.6615 C110.3573,149.1755 120.5203,143.0215 131.6483,143.0215 C147.3233,143.0215 160.0703,154.9555 160.0703,169.6435 C160.0703,175.1515 155.3163,179.6395 149.4593,179.6395 C143.6033,179.6395 138.8483,175.1515 138.8483,169.6435 C138.8483,166.0055 135.6443,163.0475 131.6823,163.0475 C127.7203,163.0475 124.5163,166.0055 124.5163,169.6435 C124.5163,175.4575 126.7903,180.8975 130.9593,184.9775 C134.2323,188.1735 137.3673,189.9415 142.2243,191.2675 C143.1553,191.5055 143.6713,192.4575 143.4303,193.3415 C143.2583,194.1235 142.5353,194.6335 141.8113,194.6335"/>
    <path stroke="#DADCE0" stroke-width="4" d="M66,223.5037 L197.537,223.5037 C204.165,223.5037 209.537,218.1317 209.537,211.5037 L209.537,109.7627 C209.537,103.1357 204.165,97.7627 197.537,97.7627 L66,97.7627 C59.373,97.7627 54,103.1357 54,109.7627 L54,211.5037 C54,218.1317 59.373,223.5037 66,223.5037 Z"/>
    <rect width="264" height="264"/>
  </g>
</svg>
