<svg version="1.1" id="Standard_product_icon" xmlns="http://www.w3.org/2000/svg" x="0" y="0" width="512" height="512" viewBox="0 0 192 192" xml:space="preserve"><style>.st2{fill:#bdc1c6}</style><path id="bounding_box_1_" fill="none" d="M0 0h192v192H0z"/><g id="art_layer"><path d="M95.5 8c-2.9 0-5.8 1.1-8.1 3.2L22.9 70.6c-2.4 2.2-3.7 5.1-3.8 8.1l40.7 6.4L95.5 72l10-28.6L95.5 8z" fill="#4285f4"/><path class="st2" d="M109.6 128.7L67.4 184h22c3.7 0 7.2-1.7 9.5-4.7l38.6-50.6h-27.9zM19.2 144.1c-3.7 0-7.2 1.7-9.5 4.7L8 151.1l11.9 2.7 7 9.1 14.4-18.8H19.2z"/><path d="M95.5 72l-76.4 6.7c-.2 2.8.6 5.6 2.4 8L43.9 116l6.1 8 25.7 7.7L95.5 120l10-24-10-24z" fill="#34a853"/><path d="M50 124l36.1 47.3c2.4 3.1 5.9 4.7 9.5 4.7l10-28.8-10-27.2-45.6 4z" fill="#fbbc04"/><path d="M89.4 184c-3.7 0-7.2-1.7-9.5-4.7l-23.4-30.6c-2.3-3-5.8-4.7-9.5-4.7H19.2c3.7 0 7.2 1.7 9.5 4.7l23.4 30.6c2.3 3 5.8 4.7 9.5 4.7h27.8z" fill="#dadce0"/><path d="M172 78.7c-.1-1.4-.4-2.7-.9-4-.6-1.5-1.6-2.9-2.9-4.1l-64.5-59.5C101.3 9 98.4 8 95.5 8v64l38.2 13.4 38.3-6.7z" fill="#669df6"/><path d="M172 78.7L95.5 72v48l22.1 11.7 23.5-7.7 6.1-8 22.3-29.2c1.9-2.4 2.6-5.3 2.5-8.1z" fill="#5bb974"/><path d="M95.5 176c3.5 0 7.1-1.6 9.5-4.7l36.1-47.3-45.6-4v56z" fill="#fcc934"/></g></svg>