<!-- Copyright 2019 The Chromium Authors. All rights reserved.
     Use of this source code is governed by a BSD-style license that can be
     found in the LICENSE file. -->
<svg height="20" viewBox="0 0 20 20" width="20" xmlns="http://www.w3.org/2000/svg"><path d="m7.70950283 6.28949254 9.79049717 9.71050746v1.5h-1.5l-6.01810633-6.0676801-2.27426466 2.2742646c.18741883.3916353.29237099.830269.29237099 1.2934155 0 1.6568542-1.34314575 3-3 3s-3-1.3431458-3-3 1.34314575-3 3-3c.46314653 0 .90178018.1049522 1.29341545.292371l2.28006551-2.2800655-2.28398842-2.30280267c-.39064059.18624442-.8278918.29049717-1.28949254.29049717-1.65685425 0-3-1.34314575-3-3s1.34314575-3 3-3 3 1.34314575 3 3c0 .46160074-.10425275.89885195-.29049717 1.28949254zm-2.70950283-.28949254c.55228475 0 1-.44771525 1-1s-.44771525-1-1-1-1 .44771525-1 1 .44771525 1 1 1zm0 10c.55228475 0 1-.4477153 1-1s-.44771525-1-1-1-1 .4477153-1 1 .44771525 1 1 1zm11-13.5h2v1l-5.4494019 5.37683105-1.4087524-1.4232788zm-6 8c.2761424 0 .5-.2238576.5-.5 0-.27614237-.2238576-.5-.5-.5-.27614237 0-.5.22385763-.5.5 0 .2761424.22385763.5.5.5z" fill="#E8EAED" fill-rule="evenodd"/></svg>
