<svg width="46" height="39" xmlns="http://www.w3.org/2000/svg"><g transform="translate(-2 -2)" fill="none" fill-rule="evenodd"><circle fill="#90CFA3" cx="9.764" cy="38.785" r="2"/><path d="M34.998 27.443l11.433-.565a1.157 1.157 0 0 1 1.156 1.16 1.142 1.142 0 0 1-.127.514L42.284 38.58a1.174 1.174 0 0 1-1.977.163L34.05 29.28a1.144 1.144 0 0 1 .247-1.611c.203-.148.45-.227.701-.226z" fill="#EE675C" style="mix-blend-mode:screen"/><path d="M37.43 13.118H16.097a2.663 2.663 0 0 0-2.653 2.667l-.014 16c0 1.466 1.2 2.666 2.667 2.666H37.43c1.467 0 2.667-1.2 2.667-2.666v-16c0-1.467-1.2-2.667-2.667-2.667zm0 5.333l-10.666 6.667-10.667-6.667v-2.666l10.667 6.666 10.666-6.666v2.666z" fill="#8AB4F8" fill-rule="nonzero"/><path style="mix-blend-mode:multiply" d="M10.764 7.785h32v32h-32z"/><path d="M7.356 5.426c4.903-4.184 12.016-3.946 16.689.284.464.42 1.274 1.412-.187 2.658L7.085 22.678c-1.324 1.13-1.914.198-2.203-.255C1.42 16.985 2.38 9.671 7.356 5.426z" fill="#FDD663" style="mix-blend-mode:screen"/></g></svg>