<svg width="42" height="38" xmlns="http://www.w3.org/2000/svg"><g transform="translate(-2 -2)" fill="none" fill-rule="evenodd"><path d="M31.235 26.057l11.432-.566a1.157 1.157 0 0 1 1.157 1.16 1.142 1.142 0 0 1-.128.515L38.52 37.192a1.174 1.174 0 0 1-1.977.163l-6.257-9.461a1.144 1.144 0 0 1 .247-1.612c.203-.148.45-.227.702-.225z" fill="#E74133"/><path d="M23.239 25.678v-4.464h11.455c.171.756.306 1.464.306 2.46 0 6.852-4.687 11.724-11.75 11.724-6.767 0-12.25-5.376-12.25-12s5.483-12 12.239-12c3.304 0 6.07 1.188 8.187 3.132l-3.475 3.312c-.882-.816-2.411-1.788-4.712-1.788-4.051 0-7.356 3.3-7.356 7.344 0 4.044 3.305 7.344 7.356 7.344 4.687 0 6.413-3.18 6.73-5.064h-6.73z" fill="#1A73E8" fill-rule="nonzero"/><path d="M7 7.398h32v32H7z"/><circle fill="#31A753" cx="10" cy="37.398" r="2"/><path d="M6.592 5.039c4.904-4.183 12.017-3.946 16.689.284.464.42 1.274 1.412-.187 2.658L6.321 22.291c-1.324 1.13-1.914.198-2.202-.254C.655 16.597 1.616 9.284 6.592 5.039z" fill="#FACF4C" style="mix-blend-mode:multiply"/></g></svg>