<svg width="44" height="39" xmlns="http://www.w3.org/2000/svg"><g transform="translate(-2 -2)" fill="none" fill-rule="evenodd"><path d="M33.235 28.659l11.432-.566a1.157 1.157 0 0 1 1.157 1.16 1.142 1.142 0 0 1-.128.515L40.52 39.794a1.174 1.174 0 0 1-1.977.163l-6.257-9.461a1.144 1.144 0 0 1 .247-1.612c.203-.148.45-.227.702-.225z" fill="#E74133"/><circle fill="#31A753" cx="9" cy="38.398" r="2"/><path d="M6.592 5.039c4.904-4.183 12.017-3.946 16.689.284.464.42 1.274 1.412-.187 2.658L6.321 22.291c-1.324 1.13-1.914.198-2.202-.254C.655 16.597 1.616 9.284 6.592 5.039z" fill="#FACF4C" style="mix-blend-mode:multiply"/><path d="M9 7h32v32H9z"/><path d="M34.333 13.667v18.666H15.667V13.667h18.666zm0-2.667H15.667A2.675 2.675 0 0 0 13 13.667v18.666C13 33.8 14.2 35 15.667 35h18.666C35.8 35 37 33.8 37 32.333V13.667C37 12.2 35.8 11 34.333 11zm-6.48 11.813l-4 5.16L21 24.52l-4 5.147h16l-5.147-6.854z" fill="#1A73E8" fill-rule="nonzero"/></g></svg>