<svg xmlns="http://www.w3.org/2000/svg" xmlns:xlink="http://www.w3.org/1999/xlink" width="20" height="20" viewBox="0 0 20 20">
  <defs>
    <path id="ic_sound_on_1x-a" d="M10.8333333,13 C12.2166667,13 13.3333333,11.8833333 13.3333333,10.5 L13.3333333,5.5 C13.3333333,4.11666667 12.2166667,3 10.8333333,3 C9.45,3 8.33333333,4.11666667 8.33333333,5.5 L8.33333333,10.5 C8.33333333,11.8833333 9.45,13 10.8333333,13 Z M15,10.5 C15,12.8 13.1333333,14.6666667 10.8333333,14.6666667 C8.53333333,14.6666667 6.66666667,12.8 6.66666667,10.5 L5,10.5 C5,13.4416667 7.175,15.8583333 10,16.2666667 L10,18.8333333 L11.6666667,18.8333333 L11.6666667,16.2666667 C14.4916667,15.8583333 16.6666667,13.4416667 16.6666667,10.5 L15,10.5 Z"/>
  </defs>
  <g fill="none" fill-rule="evenodd" transform="translate(-.833 -.5)">
    <use fill="#FFF" fill-rule="nonzero" xlink:href="#ic_sound_on_1x-a"/>
    <rect width="20" height="20" x=".833" y=".5"/>
  </g>
</svg>
