<svg width="20px" height="20px" viewBox="0 0 20 20" version="1.1" xmlns="http://www.w3.org/2000/svg" xmlns:xlink="http://www.w3.org/1999/xlink">
    <defs>
        <path d="M16.075,3.79166667 L14.8916667,4.975 C13.6,3.95 11.975,3.33333333 10.2083333,3.33333333 C8.68333333,3.33333333 7.26666667,3.79166667 6.08333333,4.56666667 L7.3,5.78333333 C8.15,5.29166667 9.15,5 10.2083333,5 C13.4333333,5 16.0416667,7.60833333 16.0416667,10.8333333 C16.0416667,11.8916667 15.75,12.8916667 15.2583333,13.7416667 L16.4666667,14.95 C17.25,13.775 17.7083333,12.3583333 17.7083333,10.8333333 C17.7083333,9.06666667 17.0916667,7.44166667 16.0666667,6.15833333 L17.25,4.975 L16.075,3.79166667 Z M12.7083333,0.833333333 L7.70833333,0.833333333 L7.70833333,2.5 L12.7083333,2.5 L12.7083333,0.833333333 Z M9.375,7.86666667 L11.0416667,9.53333333 L11.0416667,6.66666667 L9.375,6.66666667 L9.375,7.86666667 Z M2.725,3.33333333 L1.66666667,4.39166667 L3.95833333,6.69166667 C3.16666667,7.875 2.70833333,9.3 2.70833333,10.8333333 C2.70833333,14.975 6.05833333,18.3333333 10.2083333,18.3333333 C11.7416667,18.3333333 13.1666667,17.875 14.3583333,17.0833333 L16.4416667,19.1666667 L17.5,18.1083333 L11.075,11.6833333 L2.725,3.33333333 Z M10.2083333,16.6666667 C6.98333333,16.6666667 4.375,14.0583333 4.375,10.8333333 C4.375,9.76666667 4.66666667,8.76666667 5.16666667,7.9 L13.1333333,15.8666667 C12.275,16.375 11.275,16.6666667 10.2083333,16.6666667 Z" id="path-1"></path>
    </defs>
    <g stroke="none" stroke-width="1" fill="none" fill-rule="evenodd">
        <mask id="mask-2" fill="white">
            <use xlink:href="#path-1"></use>
        </mask>
        <use id="Shape" fill="#FFFFFF" fill-rule="nonzero" xlink:href="#path-1"></use>
    </g>
</svg>
