<svg xmlns="http://www.w3.org/2000/svg" xmlns:xlink="http://www.w3.org/1999/xlink" width="20" height="20" viewBox="0 0 20 20">
  <defs>
    <path id="ic_mirror_1x-a" d="M10,17 L12,17 L12,15 L10,15 L10,17 Z M14,7 L16,7 L16,5 L14,5 L14,7 Z M0,2.72727273 L0,15.3054421 C0,16.2554421 0.773999977,17 1.71999995,17 L5,17 L5,15 L2,15 L2,3.05543312 L5,3.05543312 L5,1 L1.71999995,1 C0.773999977,1 0,1.77727273 0,2.72727273 Z M14,1 L14,3 L16,3 C16,1.9 15.1,1 14,1 Z M7,18 L9,18 L9,0 L7,0 L7,18 Z M14,13 L16,13 L16,11 L14,11 L14,13 Z M10,3 L12,3 L12,1 L10,1 L10,3 Z M14,10 L16,10 L16,8 L14,8 L14,10 Z M14,17.0540541 C15.1354839,17.0540541 16.0645161,16.1297297 16.0645161,15 L14,15 L14,17.0540541 Z"/>
  </defs>
  <g fill="none" fill-rule="evenodd" transform="translate(2 1)">
    <use fill="#FFF" fill-rule="nonzero" xlink:href="#ic_mirror_1x-a"/>
  </g>
</svg>
