<?xml version="1.0" encoding="UTF-8"?>
<svg width="20px" height="20px" viewBox="0 0 20 20" version="1.1" xmlns="http://www.w3.org/2000/svg" xmlns:xlink="http://www.w3.org/1999/xlink">
    <!-- Generator: Sketch 51.1 (57501) - http://www.bohemiancoding.com/sketch -->
    <title>ic_timer_on_1x</title>
    <desc>Created with Sketch.</desc>
    <defs></defs>
    <g id="ic_timer_on_1x" stroke="none" stroke-width="1" fill="none" fill-rule="evenodd">
        <g id="Group" transform="translate(2.500000, 1.000000)" fill="#FFFFFF" fill-rule="nonzero">
            <polygon id="Path" points="10 1.68181818 5 1.68181818 5 2.27373675e-13 10 2.27373675e-13"></polygon>
            <polygon id="Path" points="6.66666667 10.9318182 8.33333333 10.9318182 8.33333333 5.88636364 6.66666667 5.88636364"></polygon>
            <path d="M15,10.0993182 C15,14.2786364 11.65,17.6675 7.5,17.6675 C3.35,17.6675 1.13686838e-13,14.2786364 1.13686838e-13,10.0993182 C1.13686838e-13,5.92 3.35833333,2.53113636 7.5,2.53113636 C9.26666667,2.53113636 10.8916667,3.15340909 12.1833333,4.19613636 L13.3666667,3.00204545 C13.7916667,3.35522727 14.1833333,3.75886364 14.5416667,4.18772727 L13.3583333,5.38181818 C14.3833333,6.66840909 15,8.31659091 15,10.0993182 Z M13.3333333,10.0993182 C13.3333333,6.845 10.725,4.21295455 7.5,4.21295455 C4.275,4.21295455 1.66666667,6.845 1.66666667,10.0993182 C1.66666667,13.3536364 4.275,15.9856818 7.5,15.9856818 C10.725,15.9856818 13.3333333,13.3536364 13.3333333,10.0993182 Z" id="Combined-Shape"></path>
        </g>
    </g>
</svg>