<svg width="20px" height="20px" viewBox="0 0 20 20" version="1.1" xmlns="http://www.w3.org/2000/svg" xmlns:xlink="http://www.w3.org/1999/xlink">
    <defs>
        <path d="M12.5,0.83 L7.5,0.83 L7.5,2.49666667 L12.5,2.49666667 L12.5,0.83 Z M15.8583333,6.155 L17.0416667,4.97166667 C16.6833333,4.54666667 16.2916667,4.14666667 15.8666667,3.79666667 L14.6833333,4.98 C13.3916667,3.94666667 11.7666667,3.33 10,3.33 C5.85833333,3.33 2.5,6.68833333 2.5,10.83 C2.5,14.9716667 5.85,18.33 10,18.33 C14.15,18.33 17.5,14.9716667 17.5,10.83 C17.5,9.06333333 16.8833333,7.43833333 15.8583333,6.155 Z M10,16.6633333 C6.775,16.6633333 4.16666667,14.055 4.16666667,10.83 C4.16666667,7.605 6.775,4.99666667 10,4.99666667 C13.225,4.99666667 15.8333333,7.605 15.8333333,10.83 C15.8333333,14.055 13.225,16.6633333 10,16.6633333 Z M12.5,12.7347619 L12.5,11.6633333 C12.5,11.0728571 11.9388889,10.5919048 11.25,10.5919048 C11.9388889,10.5919048 12.5,10.1109524 12.5,9.52047619 L12.5,8.9252381 C12.5,8.1347619 11.75,7.49666667 10.8333333,7.49666667 L7.5,7.49666667 L7.5,8.9252381 L10.8333333,8.9252381 L10.8333333,9.87761905 L9.16666667,9.87761905 L9.16666667,11.3061905 L10.8333333,11.3061905 L10.8333333,12.7347619 L7.5,12.7347619 L7.5,14.1633333 L10.8333333,14.1633333 C11.75,14.1633333 12.5,13.5252381 12.5,12.7347619 Z" id="path-1"></path>
    </defs>
    <g stroke="none" stroke-width="1" fill="none" fill-rule="evenodd">
        <mask id="mask-2" fill="white">
            <use xlink:href="#path-1"></use>
        </mask>
        <use id="Shape" fill="#FFFFFF" fill-rule="nonzero" xlink:href="#path-1"></use>
    </g>
</svg>
