<svg xmlns="http://www.w3.org/2000/svg" xmlns:xlink="http://www.w3.org/1999/xlink" width="20px" height="20px" viewBox="0 0 20 20">
    <defs>
        <path d="M12.5,3.33333333 L12.5,2.5 L7.5,2.5 L7.5,3.33333333 L3.33333333,3.33333333 L3.33333333,5 L4.16666667,5 L4.16666667,15.8333333 C4.16666667,16.75 4.91666667,17.5 5.83333333,17.5 L14.1666667,17.5 C15.0833333,17.5 15.8333333,16.75 15.8333333,15.8333333 L15.8333333,5 L16.6666667,5 L16.6666667,3.33333333 L12.5,3.33333333 Z M14.1666667,15.8333333 L5.83333333,15.8333333 L5.83333333,5 L14.1666667,5 L14.1666667,15.8333333 Z M7.5,6.66666667 L9.16666667,6.66666667 L9.16666667,14.1666667 L7.5,14.1666667 L7.5,6.66666667 Z M10.8333333,6.66666667 L12.5,6.66666667 L12.5,14.1666667 L10.8333333,14.1666667 L10.8333333,6.66666667 Z" id="path-1"></path>
    </defs>
    <g fill="none" fill-rule="evenodd">
        <g>
            <mask fill="white">
                <use xlink:href="#path-1"></use>
            </mask>
            <use fill="#FFFFFF" fill-rule="nonzero" xlink:href="#path-1"></use>
            <rect x="0" y="0" width="20" height="20"></rect>
        </g>
    </g>
</svg>
