<svg width="24px" height="24px" viewBox="0 0 24 24" version="1.1" xmlns="http://www.w3.org/2000/svg" xmlns:xlink="http://www.w3.org/1999/xlink">
    <defs>
        <path d="M15,3 L10,3 L10,4.66666667 L15,4.66666667 L15,3 Z M18.3583333,8.325 L19.5416667,7.14166667 C19.1833333,6.71666667 18.7916667,6.31666667 18.3666667,5.96666667 L17.1833333,7.15 C15.8916667,6.11666667 14.2666667,5.5 12.5,5.5 C8.35833333,5.5 5,8.85833333 5,13 C5,17.1416667 8.35,20.5 12.5,20.5 C16.65,20.5 20,17.1416667 20,13 C20,11.2333333 19.3833333,9.60833333 18.3583333,8.325 Z M12.5,18.8333333 C9.275,18.8333333 6.66666667,16.225 6.66666667,13 C6.66666667,9.775 9.275,7.16666667 12.5,7.16666667 C15.725,7.16666667 18.3333333,9.775 18.3333333,13 C18.3333333,16.225 15.725,18.8333333 12.5,18.8333333 Z M8.33333333,11.0952381 L9.28571429,11.0952381 L9.28571429,16.3333333 L10.7142857,16.3333333 L10.7142857,9.66666667 L8.33333333,9.66666667 L8.33333333,11.0952381 Z M15.8333333,11.0952381 L15.8333333,14.9047619 C15.8333333,15.6952381 15.1952381,16.3333333 14.4047619,16.3333333 L13.452381,16.3333333 C12.6619048,16.3333333 12.0238095,15.6952381 12.0238095,14.9047619 L12.0238095,11.0952381 C12.0238095,10.3047619 12.6619048,9.66666667 13.452381,9.66666667 L14.4047619,9.66666667 C15.1952381,9.66666667 15.8333333,10.3047619 15.8333333,11.0952381 Z M14.4047619,11.0952381 L13.452381,11.0952381 L13.452381,14.9047619 L14.4047619,14.9047619 L14.4047619,11.0952381 Z" id="path-1"></path>
        <filter x="-30.0%" y="-25.7%" width="160.0%" height="151.4%" filterUnits="objectBoundingBox" id="filter-3">
            <feOffset dx="0" dy="0" in="SourceAlpha" result="shadowOffsetOuter1"></feOffset>
            <feGaussianBlur stdDeviation="1.5" in="shadowOffsetOuter1" result="shadowBlurOuter1"></feGaussianBlur>
            <feColorMatrix values="0 0 0 0 0.125490196   0 0 0 0 0.129411765   0 0 0 0 0.141176471  0 0 0 0.3 0" type="matrix" in="shadowBlurOuter1"></feColorMatrix>
        </filter>
    </defs>
    <g stroke="none" stroke-width="1" fill="none" fill-rule="evenodd">
        <mask id="mask-2" fill="white">
            <use xlink:href="#path-1"></use>
        </mask>
        <g id="Shape" fill-rule="nonzero">
            <use fill="black" fill-opacity="1" filter="url(#filter-3)" xlink:href="#path-1"></use>
            <use fill="#FFFFFF" xlink:href="#path-1"></use>
        </g>
    </g>
</svg>
