<svg width="24px" height="24px" viewBox="0 0 24 24" version="1.1" xmlns="http://www.w3.org/2000/svg" xmlns:xlink="http://www.w3.org/1999/xlink">
    <defs>
        <filter x="-31.0%" y="-31.0%" width="161.9%" height="161.9%" filterUnits="objectBoundingBox" id="filter-1">
            <feOffset dx="0" dy="0" in="SourceAlpha" result="shadowOffsetOuter1"></feOffset>
            <feGaussianBlur stdDeviation="1.5" in="shadowOffsetOuter1" result="shadowBlurOuter1"></feGaussianBlur>
            <feColorMatrix values="0 0 0 0 0.125490196   0 0 0 0 0.129411765   0 0 0 0 0.141176471  0 0 0 0.3 0" type="matrix" in="shadowBlurOuter1" result="shadowMatrixOuter1"></feColorMatrix>
            <feMerge>
                <feMergeNode in="shadowMatrixOuter1"></feMergeNode>
                <feMergeNode in="SourceGraphic"></feMergeNode>
            </feMerge>
        </filter>
    </defs>
    <g stroke="none" stroke-width="1" fill="none" fill-rule="evenodd">
        <g id="Page-1" filter="url(#filter-1)" transform="translate(2.000000, 2.000000)">
            <path d="M13.725,6.999875 L17.0583333,6.999875 L17.0583333,3.66654167 L13.725,3.66654167 L13.725,6.999875 Z M7.05833333,3.66654167 L7.05833333,5.137375 L8.725,6.80404167 L8.725,3.66654167 L12.0583333,3.66654167 L12.0583333,6.999875 L8.92125,6.999875 L10.5879167,8.66654167 L12.0583333,8.66654167 L12.0583333,10.137375 L12.49375,10.5727917 L13.725,11.8040417 L13.725,8.66654167 L17.0583333,8.66654167 L17.0583333,11.999875 L13.92125,11.999875 L15.5879167,13.6665417 L17.0583333,13.6665417 L17.0583333,15.137375 L18.725,16.8040417 L18.725,3.66654167 C18.725,2.749875 17.975,1.999875 17.0583333,1.999875 L3.92125,1.999875 L5.58791667,3.66654167 L7.05833333,3.66654167 Z" id="Fill-1" fill="#FFFFFF"></path>
            <path d="M13.725,17 L13.725,15.975 L14.75,17 L13.725,17 Z M8.725,17 L8.725,13.6666667 L11.4166667,13.6666667 L12.0583333,14.3083333 L12.0583333,17 L8.725,17 Z M3.725,12 L3.725,8.66666667 L6.41666667,8.66666667 L7.05833333,9.30833333 L7.05833333,12 L3.725,12 Z M3.725,17 L7.05833333,17 L7.05833333,13.6666667 L3.725,13.6666667 L3.725,17 Z M4.75,7 L3.725,7 L3.725,5.975 L4.75,7 Z M8.725,10.975 L9.75,12 L8.725,12 L8.725,10.975 Z M18.4420833,18.5754167 L11.4666667,11.6 L2.05833333,2.19166667 L1,3.25 L2.05833333,4.30833333 L2.05833333,17 C2.05833333,17.9166667 2.80833333,18.6666667 3.725,18.6666667 L16.4166667,18.6666667 L17.38375,19.63375 L18.4420833,18.5754167 Z" id="Fill-3" fill="#FFFFFF"></path>
            <rect id="Rectangle" x="0.395833313" y="0.333333333" width="20" height="20"></rect>
        </g>
    </g>
</svg>
