<svg width="24px" height="24px" viewBox="0 0 24 24" version="1.1" xmlns="http://www.w3.org/2000/svg" xmlns:xlink="http://www.w3.org/1999/xlink">
    <defs>
        <path d="M18.4083333,5.95833333 L17.225,7.14166667 C15.9333333,6.11666667 14.3083333,5.5 12.5416667,5.5 C11.0166667,5.5 9.6,5.95833333 8.41666667,6.73333333 L9.63333333,7.95 C10.4833333,7.45833333 11.4833333,7.16666667 12.5416667,7.16666667 C15.7666667,7.16666667 18.375,9.775 18.375,13 C18.375,14.0583333 18.0833333,15.0583333 17.5916667,15.9083333 L18.8,17.1166667 C19.5833333,15.9416667 20.0416667,14.525 20.0416667,13 C20.0416667,11.2333333 19.425,9.60833333 18.4,8.325 L19.5833333,7.14166667 L18.4083333,5.95833333 Z M15.0416667,3 L10.0416667,3 L10.0416667,4.66666667 L15.0416667,4.66666667 L15.0416667,3 Z M11.7083333,10.0333333 L13.375,11.7 L13.375,8.83333333 L11.7083333,8.83333333 L11.7083333,10.0333333 Z M5.05833333,5.5 L4,6.55833333 L6.29166667,8.85833333 C5.5,10.0416667 5.04166667,11.4666667 5.04166667,13 C5.04166667,17.1416667 8.39166667,20.5 12.5416667,20.5 C14.075,20.5 15.5,20.0416667 16.6916667,19.25 L18.775,21.3333333 L19.8333333,20.275 L13.4083333,13.85 L5.05833333,5.5 Z M12.5416667,18.8333333 C9.31666667,18.8333333 6.70833333,16.225 6.70833333,13 C6.70833333,11.9333333 7,10.9333333 7.5,10.0666667 L15.4666667,18.0333333 C14.6083333,18.5416667 13.6083333,18.8333333 12.5416667,18.8333333 Z" id="path-1"></path>
        <filter x="-28.1%" y="-24.5%" width="156.1%" height="149.1%" filterUnits="objectBoundingBox" id="filter-3">
            <feOffset dx="0" dy="0" in="SourceAlpha" result="shadowOffsetOuter1"></feOffset>
            <feGaussianBlur stdDeviation="1.5" in="shadowOffsetOuter1" result="shadowBlurOuter1"></feGaussianBlur>
            <feColorMatrix values="0 0 0 0 0.125490196   0 0 0 0 0.129411765   0 0 0 0 0.141176471  0 0 0 0.3 0" type="matrix" in="shadowBlurOuter1"></feColorMatrix>
        </filter>
    </defs>
    <g stroke="none" stroke-width="1" fill="none" fill-rule="evenodd">
        <mask id="mask-2" fill="white">
            <use xlink:href="#path-1"></use>
        </mask>
        <g id="Shape" fill-rule="nonzero">
            <use fill="black" fill-opacity="1" filter="url(#filter-3)" xlink:href="#path-1"></use>
            <use fill="#FFFFFF" xlink:href="#path-1"></use>
        </g>
    </g>
</svg>
