<svg xmlns="http://www.w3.org/2000/svg" xmlns:xlink="http://www.w3.org/1999/xlink" width="20px" height="20px" viewBox="0 0 20 20">
    <defs>
        <path d="M15.8333333,6.66666667 L15,6.66666667 L15,2.5 L5,2.5 L5,6.66666667 L4.16666667,6.66666667 C2.78333333,6.66666667 1.66666667,7.78333333 1.66666667,9.16666667 L1.66666667,14.1666667 L5,14.1666667 L5,17.5 L15,17.5 L15,14.1666667 L18.3333333,14.1666667 L18.3333333,9.16666667 C18.3333333,7.78333333 17.2166667,6.66666667 15.8333333,6.66666667 Z M13.3333333,15.8333333 L6.66666667,15.8333333 L6.66666667,12.5 L13.3333333,12.5 L13.3333333,15.8333333 Z M13.3333333,6.66666667 L6.66666667,6.66666667 L6.66666667,4.16666667 L13.3333333,4.16666667 L13.3333333,6.66666667 Z M15,10.4166667 C14.5416667,10.4166667 14.1666667,10.0416667 14.1666667,9.58333333 C14.1666667,9.125 14.5416667,8.75 15,8.75 C15.4583333,8.75 15.8333333,9.125 15.8333333,9.58333333 C15.8333333,10.0416667 15.4583333,10.4166667 15,10.4166667 Z" id="path-1"></path>
    </defs>
    <g fill="none" fill-rule="evenodd">
        <g>
            <mask fill="white">
                <use xlink:href="#path-1"></use>
            </mask>
            <use fill="#FFFFFF" fill-rule="nonzero" xlink:href="#path-1"></use>
            <rect x="0" y="0" width="20" height="20"></rect>
        </g>
    </g>
</svg>
