<?xml version="1.0" encoding="UTF-8"?>
<svg width="20px" height="20px" viewBox="0 0 20 20" version="1.1" xmlns="http://www.w3.org/2000/svg" xmlns:xlink="http://www.w3.org/1999/xlink">
    <!-- Generator: Sketch 51.1 (57501) - http://www.bohemiancoding.com/sketch -->
    <title>ic_mirror_off_1x</title>
    <desc>Created with Sketch.</desc>
    <defs>
        <polygon id="path-1" points="0 20 20 20 20 0 0 0"></polygon>
    </defs>
    <g id="ic_mirror_off_1x" stroke="none" stroke-width="1" fill="none" fill-rule="evenodd">
        <g id="Group-13">
            <path d="M16,16 L16,18 C16.8215,18 17.5305,17.4975 17.8375,16.7855 L17.0515,16 L16,16 Z" id="Fill-1" fill="#FFFFFF"></path>
            <mask id="mask-2" fill="white">
                <use xlink:href="#path-1"></use>
            </mask>
            <g id="Clip-4"></g>
            <polygon id="Fill-3" fill="#FFFFFF" mask="url(#mask-2)" points="12.5 18 14.5 18 14.5 16 12.5 16"></polygon>
            <polygon id="Fill-5" fill="#FFFFFF" mask="url(#mask-2)" points="11 1 9 1 9 5.598 11 7.598"></polygon>
            <polygon id="Fill-6" fill="#FFFFFF" mask="url(#mask-2)" points="7.599 2 6 2 7.599 3.5995"></polygon>
            <polygon id="Fill-7" fill="#FFFFFF" mask="url(#mask-2)" points="12.5 4.5 14.5 4.5 14.5 2.5 12.5 2.5"></polygon>
            <path d="M16,2.5 L16,4.5 L18,4.5 C18,3.4 17.1,2.5 16,2.5" id="Fill-8" fill="#FFFFFF" mask="url(#mask-2)"></path>
            <path d="M18.5,17.4082 L3.183,2.0917 L2,3.2667 L2.546,3.8122 C2.546,3.8122 3,4.24142456 3,4.24142456 L3,16.3262 C3,17.2512 3.75,18.0077 4.6665,18.0077 L7.00479126,18.0077 L7.00479126,16.0002 L5.0022583,16.0002 L5.0022583,6.24542236 L9,10.2627 L9,19 L11,19 L11,12.2617 L17.325,18.5837 L18.5,17.4082 Z" id="Fill-9" fill="#FFFFFF" mask="url(#mask-2)"></path>
            <polygon id="Fill-10" fill="#FFFFFF" mask="url(#mask-2)" points="16 8 18 8 18 6 16 6"></polygon>
            <polygon id="Fill-11" fill="#FFFFFF" mask="url(#mask-2)" points="16 11 18 11 18 9 16 9"></polygon>
            <polygon id="Fill-12" fill="#FFFFFF" mask="url(#mask-2)" points="18 14.5 18 12.5 16 12.5 16 12.5975 17.9025 14.5"></polygon>
        </g>
    </g>
</svg>