<svg width="20px" height="20px" viewBox="0 0 20 20" version="1.1" xmlns="http://www.w3.org/2000/svg" xmlns:xlink="http://www.w3.org/1999/xlink">
    <defs>
        <path d="M9.18833333,5 C9.18833333,4.54166667 9.56333333,4.16666667 10.0216667,4.16666667 C10.48,4.16666667 10.855,4.54166667 10.855,5 L10.855,9.30833333 L12.3716667,10.825 C12.4633333,10.5666667 12.5216667,10.2916667 12.5216667,10 L12.5216667,5 C12.5216667,3.61666667 11.405,2.5 10.0216667,2.5 C8.63833333,2.5 7.52166667,3.61666667 7.52166667,5 L7.52166667,5.975 L9.18833333,7.64166667 L9.18833333,5 Z M2.36333333,3.175 L1.18,4.35 L10.8883333,14.0583333 C10.6133333,14.125 10.3216667,14.1666667 10.0216667,14.1666667 C7.72166667,14.1666667 5.855,12.3 5.855,10 L4.18833333,10 C4.18833333,12.9416667 6.36333333,15.3583333 9.18833333,15.7666667 L9.18833333,18.3333333 L10.855,18.3333333 L10.855,15.7666667 C11.33,15.7 11.7883333,15.5666667 12.2216667,15.3833333 L16.505,19.6666667 L17.68,18.4916667 L2.36333333,3.175 Z M15.855,10 L14.1883333,10 C14.1883333,10.7583333 13.9716667,11.4583333 13.6133333,12.0666667 L14.83,13.2833333 C15.4716667,12.35 15.855,11.225 15.855,10 Z" id="path-1"></path>
    </defs>
    <g fill="none" fill-rule="evenodd">
        <mask fill="white">
            <use xlink:href="#path-1"></use>
        </mask>
        <use fill="#FFFFFF" fill-rule="nonzero" xlink:href="#path-1"></use>
        <rect x="0" y="0" width="20" height="20"></rect>
    </g>
</svg>
