<svg width="24px" height="24px" viewBox="0 0 24 24" version="1.1" xmlns="http://www.w3.org/2000/svg" xmlns:xlink="http://www.w3.org/1999/xlink">
    <defs>
        <filter x="-38.2%" y="-36.1%" width="176.5%" height="172.2%" filterUnits="objectBoundingBox" id="filter-1">
            <feOffset dx="0" dy="0" in="SourceAlpha" result="shadowOffsetOuter1"></feOffset>
            <feGaussianBlur stdDeviation="1.5" in="shadowOffsetOuter1" result="shadowBlurOuter1"></feGaussianBlur>
            <feColorMatrix values="0 0 0 0 0.125490196   0 0 0 0 0.129411765   0 0 0 0 0.141176471  0 0 0 0.3 0" type="matrix" in="shadowBlurOuter1" result="shadowMatrixOuter1"></feColorMatrix>
            <feMerge>
                <feMergeNode in="shadowMatrixOuter1"></feMergeNode>
                <feMergeNode in="SourceGraphic"></feMergeNode>
            </feMerge>
        </filter>
        <path d="M10,17 L12,17 L12,15 L10,15 L10,17 Z M14,7 L16,7 L16,5 L14,5 L14,7 Z M0,2.72727273 L0,15.3054421 C0,16.2554421 0.773999977,17 1.71999995,17 L5,17 L5,15 L2,15 L2,3.05543312 L5,3.05543312 L5,1 L1.71999995,1 C0.773999977,1 0,1.77727273 0,2.72727273 Z M14,1 L14,3 L16,3 C16,1.9 15.1,1 14,1 Z M7,18 L9,18 L9,0 L7,0 L7,18 Z M14,13 L16,13 L16,11 L14,11 L14,13 Z M10,3 L12,3 L12,1 L10,1 L10,3 Z M14,10 L16,10 L16,8 L14,8 L14,10 Z M14,17.0540541 C15.1354839,17.0540541 16.0645161,16.1297297 16.0645161,15 L14,15 L14,17.0540541 Z" id="path-2"></path>
    </defs>
    <g stroke="none" stroke-width="1" fill="none" fill-rule="evenodd">
        <g id="Group" filter="url(#filter-1)" transform="translate(4.000000, 3.000000)">
            <mask id="mask-3" fill="white">
                <use xlink:href="#path-2"></use>
            </mask>
            <use id="ic_flip_24px" fill="#FFFFFF" fill-rule="nonzero" xlink:href="#path-2"></use>
        </g>
    </g>
</svg>
