<svg xmlns="http://www.w3.org/2000/svg" width="20" height="20" viewBox="0 0 20 20">
  <g fill="none" fill-rule="evenodd">
    <rect width="20" height="20"/>
    <path fill="#FFF" d="M12.725 4.999875L16.0583333 4.999875 16.0583333 1.66654167 12.725 1.66654167 12.725 4.999875zM6.05833333 1.66654167L6.05833333 3.137375 7.725 4.80404167 7.725 1.66654167 11.0583333 1.66654167 11.0583333 4.999875 7.92125 4.999875 9.58791667 6.66654167 11.0583333 6.66654167 11.0583333 8.137375 11.49375 8.57279167 12.725 9.80404167 12.725 6.66654167 16.0583333 6.66654167 16.0583333 9.999875 12.92125 9.999875 14.5879167 11.6665417 16.0583333 11.6665417 16.0583333 13.137375 17.725 14.8040417 17.725 1.66654167C17.725.749875 16.975-.000125 16.0583333-.000125L2.92125-.000125 4.58791667 1.66654167 6.05833333 1.66654167zM12.725 15L12.725 13.975 13.75 15 12.725 15zM7.725 15L7.725 11.6666667 10.4166667 11.6666667 11.0583333 12.3083333 11.0583333 15 7.725 15zM2.725 10L2.725 6.66666667 5.41666667 6.66666667 6.05833333 7.30833333 6.05833333 10 2.725 10zM2.725 15L6.05833333 15 6.05833333 11.6666667 2.725 11.6666667 2.725 15zM3.75 5L2.725 5 2.725 3.975 3.75 5zM7.725 8.975L8.75 10 7.725 10 7.725 8.975zM17.4420833 16.5754167L10.4666667 9.6 1.05833333.191666667 0 1.25 1.05833333 2.30833333 1.05833333 15C1.05833333 15.9166667 1.80833333 16.6666667 2.725 16.6666667L15.4166667 16.6666667 16.38375 17.63375 17.4420833 16.5754167z" transform="translate(.604 1.667)"/>
  </g>
</svg>
