<?xml version="1.0" encoding="UTF-8"?>
<svg width="20px" height="20px" viewBox="0 0 20 20" version="1.1" xmlns="http://www.w3.org/2000/svg" xmlns:xlink="http://www.w3.org/1999/xlink">
    <!-- Generator: Sketch 51.1 (57501) - http://www.bohemiancoding.com/sketch -->
    <title>ic_timer_off_1x</title>
    <desc>Created with Sketch.</desc>
    <defs>
        <path d="M15.9083333,3.95833333 L14.725,5.14166667 C13.4333333,4.11666667 11.8083333,3.5 10.0416667,3.5 C8.51666667,3.5 7.1,3.95833333 5.91666667,4.73333333 L7.13333333,5.95 C7.98333333,5.45833333 8.98333333,5.16666667 10.0416667,5.16666667 C13.2666667,5.16666667 15.875,7.775 15.875,11 C15.875,12.0583333 15.5833333,13.0583333 15.0916667,13.9083333 L16.3,15.1166667 C17.0833333,13.9416667 17.5416667,12.525 17.5416667,11 C17.5416667,9.23333333 16.925,7.60833333 15.9,6.325 L17.0833333,5.14166667 L15.9083333,3.95833333 Z M12.5416667,1 L7.54166667,1 L7.54166667,2.66666667 L12.5416667,2.66666667 L12.5416667,1 Z M9.20833333,8.03333333 L10.875,9.7 L10.875,6.83333333 L9.20833333,6.83333333 L9.20833333,8.03333333 Z M2.55833333,3.5 L1.5,4.55833333 L3.79166667,6.85833333 C3,8.04166667 2.54166667,9.46666667 2.54166667,11 C2.54166667,15.1416667 5.89166667,18.5 10.0416667,18.5 C11.575,18.5 13,18.0416667 14.1916667,17.25 L16.275,19.3333333 L17.3333333,18.275 L10.9083333,11.85 L2.55833333,3.5 Z M10.0416667,16.8333333 C6.81666667,16.8333333 4.20833333,14.225 4.20833333,11 C4.20833333,9.93333333 4.5,8.93333333 5,8.06666667 L12.9666667,16.0333333 C12.1083333,16.5416667 11.1083333,16.8333333 10.0416667,16.8333333 Z" id="path-1"></path>
    </defs>
    <g id="ic_timer_off_1x" stroke="none" stroke-width="1" fill="none" fill-rule="evenodd">
        <mask id="mask-2" fill="white">
            <use xlink:href="#path-1"></use>
        </mask>
        <use id="Shape" fill="#FFFFFF" fill-rule="nonzero" xlink:href="#path-1"></use>
    </g>
</svg>