<svg width="20px" height="20px" viewBox="0 0 20 20" version="1.1" xmlns="http://www.w3.org/2000/svg" xmlns:xlink="http://www.w3.org/1999/xlink">
    <defs>
        <polygon id="path-1" points="0 20 20 20 20 0 0 0"></polygon>
    </defs>
    <g stroke="none" stroke-width="1" fill="none" fill-rule="evenodd">
        <g>
            <path d="M16,16 L16,18 C16.8215,18 17.5305,17.4975 17.8375,16.7855 L17.0515,16 L16,16 Z" id="Fill-1" fill="#FFFFFF"></path>
            <mask id="mask-2" fill="white">
                <use xlink:href="#path-1"></use>
            </mask>
            <polygon id="Fill-3" fill="#FFFFFF" mask="url(#mask-2)" points="12.5 18 14.5 18 14.5 16 12.5 16"></polygon>
            <polygon id="Fill-5" fill="#FFFFFF" mask="url(#mask-2)" points="11 1 9 1 9 5.598 11 7.598"></polygon>
            <polygon id="Fill-6" fill="#FFFFFF" mask="url(#mask-2)" points="6.599 2 5 2 6.599 3.5995"></polygon>
            <polygon id="Fill-7" fill="#FFFFFF" mask="url(#mask-2)" points="12 4 14 4 14 2 12 2"></polygon>
            <path d="M16,2 L16,4 L18,4 C18,2.9 17.1,2 16,2" id="Fill-8" fill="#FFFFFF" mask="url(#mask-2)"></path>
            <path d="M18.683,17.8898895 L2.183,2 L1,3.175 C1.78866667,3.97597656 2.183,4.37646484 2.183,4.37646484 L2.183,16.8078895 C2.183,17.7328895 2.75,18.4893895 3.6665,18.4893895 L7.00479126,18.4893895 L7.00479126,16.4818895 L4.0022583,16.4818895 L4.0022583,6.14196777 L9,11.0465088 L9,19.0653895 L11.183,19.0653895 L11.183,12.9332275 L17.508,19.0653895 L18.683,17.8898895 Z" id="Fill-9" fill="#FFFFFF" mask="url(#mask-2)"></path>
            <polygon id="Fill-10" fill="#FFFFFF" mask="url(#mask-2)" points="16 8 18 8 18 6 16 6"></polygon>
            <polygon id="Fill-11" fill="#FFFFFF" mask="url(#mask-2)" points="16 11 18 11 18 9 16 9"></polygon>
            <polygon id="Fill-12" fill="#FFFFFF" mask="url(#mask-2)" points="18 14.5 18 12.5 16 12.5 16 12.5975 17.9025 14.5"></polygon>
        </g>
    </g>
</svg>
