<svg xmlns="http://www.w3.org/2000/svg" xmlns:xlink="http://www.w3.org/1999/xlink" width="20" height="20" viewBox="0 0 20 20">
  <defs>
    <path id="ic_sound_off_1x-a" d="M9.675,4.16666667 C9.675,3.70833333 10.05,3.33333333 10.5083333,3.33333333 C10.9666667,3.33333333 11.3416667,3.70833333 11.3416667,4.16666667 L11.3416667,8.475 L12.8583333,9.99166667 C12.95,9.73333333 13.0083333,9.45833333 13.0083333,9.16666667 L13.0083333,4.16666667 C13.0083333,2.78333333 11.8916667,1.66666667 10.5083333,1.66666667 C9.125,1.66666667 8.00833333,2.78333333 8.00833333,4.16666667 L8.00833333,5.14166667 L9.675,6.80833333 L9.675,4.16666667 Z M2.85,2.34166667 L1.66666667,3.51666667 L11.375,13.225 C11.1,13.2916667 10.8083333,13.3333333 10.5083333,13.3333333 C8.20833333,13.3333333 6.34166667,11.4666667 6.34166667,9.16666667 L4.675,9.16666667 C4.675,12.1083333 6.85,14.525 9.675,14.9333333 L9.675,17.5 L11.3416667,17.5 L11.3416667,14.9333333 C11.8166667,14.8666667 12.275,14.7333333 12.7083333,14.55 L16.9916667,18.8333333 L18.1666667,17.6583333 L2.85,2.34166667 Z M16.3416667,9.16666667 L14.675,9.16666667 C14.675,9.925 14.4583333,10.625 14.1,11.2333333 L15.3166667,12.45 C15.9583333,11.5166667 16.3416667,10.3916667 16.3416667,9.16666667 Z"/>
  </defs>
  <g fill="none" fill-rule="evenodd">
    <use fill="#FFF" fill-rule="nonzero" xlink:href="#ic_sound_off_1x-a"/>
  </g>
</svg>
