<svg width="20px" height="20px" viewBox="0 0 20 20" version="1.1" xmlns="http://www.w3.org/2000/svg" xmlns:xlink="http://www.w3.org/1999/xlink">
    <g stroke="none" stroke-width="1" fill="none" fill-rule="evenodd">
        <g id="ic_open_in_new_white_24dp">
            <polygon id="Path" points="0 0 20 0 20 20 0 20"></polygon>
            <path d="M15.8333333,15.8333333 L4.16666667,15.8333333 L4.16666667,4.16666667 L10,4.16666667 L10,2.5 L4.16666667,2.5 C3.24166667,2.5 2.5,3.25 2.5,4.16666667 L2.5,15.8333333 C2.5,16.75 3.24166667,17.5 4.16666667,17.5 L15.8333333,17.5 C16.75,17.5 17.5,16.75 17.5,15.8333333 L17.5,10 L15.8333333,10 L15.8333333,15.8333333 Z M11.6666667,2.5 L11.6666667,4.16666667 L14.6583333,4.16666667 L6.46666667,12.3583333 L7.64166667,13.5333333 L15.8333333,5.34166667 L15.8333333,8.33333333 L17.5,8.33333333 L17.5,2.5 L11.6666667,2.5 Z" id="Shape" fill="#FFFFFF" fill-rule="nonzero"></path>
        </g>
    </g>
</svg>
