<svg width="20px" height="20px" viewBox="0 0 20 20" version="1.1" xmlns="http://www.w3.org/2000/svg" xmlns:xlink="http://www.w3.org/1999/xlink">
    <defs>
        <path d="M16.6666667,1.66666667 L3.33333333,1.66666667 C2.41666667,1.66666667 1.675,2.41666667 1.675,3.33333333 L1.66666667,18.3333333 L5,15 L16.6666667,15 C17.5833333,15 18.3333333,14.25 18.3333333,13.3333333 L18.3333333,3.33333333 C18.3333333,2.41666667 17.5833333,1.66666667 16.6666667,1.66666667 Z M16.6666667,13.3333333 L5,13.3333333 L4.30833333,13.3333333 L3.81666667,13.825 L3.33333333,14.3083333 L3.33333333,3.33333333 L16.6666667,3.33333333 L16.6666667,13.3333333 Z M9.16666667,10 L10.8333333,10 L10.8333333,11.6666667 L9.16666667,11.6666667 L9.16666667,10 Z M9.16666667,5 L10.8333333,5 L10.8333333,8.33333333 L9.16666667,8.33333333 L9.16666667,5 Z" id="path-1"></path>
    </defs>
    <g stroke="none" stroke-width="1" fill="none" fill-rule="evenodd">
        <g id="Group">
            <mask id="mask-2" fill="white">
                <use xlink:href="#path-1"></use>
            </mask>
            <use id="ic_feedback_24px" fill="#FFFFFF" fill-rule="nonzero" xlink:href="#path-1"></use>
            <rect id="Rectangle" x="0" y="0" width="20" height="20"></rect>
        </g>
    </g>
</svg>
