<svg width="20" height="20" viewBox="0 0 20 20" xmlns="http://www.w3.org/2000/svg"><title>EOL_setting_100</title><path d="M3.97 2.13h-.025l.01.01.016-.01zM1.668 4.41v.024c.004-.005.007-.01.012-.014l-.013-.01zm14.16-2.54C14.19.7 12.192 0 10.026 0 7.863 0 5.865.698 4.23 1.87c-.006.005 4.594 4.624 4.594 4.624l1.204-1.505 4.986 6.234h-1.462l4.567 4.57c1.183-1.65 1.88-3.65 1.88-5.817 0-2.166-.697-4.165-1.87-5.8-.637-.89-1.415-1.668-2.304-2.306zm2.045 14.194v-.027c-.004.005-.008.01-.01.015l.01.012zm.248 2.02l-1.036-1.057-4.563-4.565-4.713-4.696-4.835-4.838-1.047-1.046-.79-.792L0 2.224 1.925 4.15C.753 5.812.055 7.81.055 9.977s.698 4.166 1.87 5.8c.638.89 1.416 1.67 2.305 2.307 1.634 1.173 3.632 1.87 5.798 1.87 2.165 0 4.163-.697 5.798-1.87L17.768 20l1.134-1.135-.782-.78zm-5.705-3H7.488v-3.86H5.042L6.8 9.027l5.615 5.724v.335z" fill="#DB4437" fill-rule="evenodd"/></svg>
