<?xml version="1.0" encoding="UTF-8"?>
<svg width="155px" height="131px" viewBox="0 0 155 131" version="1.1" xmlns="http://www.w3.org/2000/svg" xmlns:xlink="http://www.w3.org/1999/xlink">
  <g stroke="none" stroke-width="1" fill="none" fill-rule="evenodd">
    <polygon fill="#3874D5" points="0 114.5 154.75 114.5 154.75 0 0 0"></polygon>
    <g transform="translate(61.000000, 53.250000)">
      <path d="M59.25,77 L19,77 C17.35,77 16,75.65 16,74 L16,3 C16,1.35 17.35,0 19,0 L59.25,0 C60.9,0 62.25,1.35 62.25,3 L62.25,74 C62.25,75.65 60.9,77 59.25,77" fill="#4285F4"></path>
      <path d="M31.4473,61.5527 C31.4473,70.0837 24.5313,76.9997 16.0003,76.9997 C7.4683,76.9997 0.5523,70.0837 0.5523,61.5527 C0.5523,53.0207 7.4683,46.1047 16.0003,46.1047 C24.5313,46.1047 31.4473,53.0207 31.4473,61.5527" fill="#FABB05"></path>
    </g>
  </g>
</svg>