/* XPM */
static char *product_logo___[] = {
/* columns rows colors chars-per-pixel */
"32 32 256 2",
"   c #342D2B",
".  c #2E2E30",
"X  c #322F30",
"o  c #3D3534",
"O  c #38383C",
"+  c #423D3E",
"@  c #43403F",
"#  c #3F3E41",
"$  c #3A3D4A",
"%  c #373D51",
"&  c #433E41",
"*  c #3A424E",
"=  c #2D4150",
"-  c #3E4555",
";  c #3C445C",
":  c #39495A",
">  c #2E4765",
",  c #3A4F67",
"<  c #374968",
"1  c #2A546F",
"2  c #345368",
"3  c #2B4574",
"4  c #2C4A7F",
"5  c #275877",
"6  c #265675",
"7  c #355775",
"8  c #444345",
"9  c #464748",
"0  c #4D4A4D",
"q  c #514A47",
"w  c #444A54",
"e  c #4E4F50",
"r  c #444C5D",
"t  c #404353",
"y  c #4A5058",
"u  c #595453",
"i  c #55575A",
"p  c #655E5B",
"a  c #495D6D",
"s  c #425D7A",
"d  c #485A78",
"f  c #58606F",
"g  c #46647F",
"h  c #57687C",
"j  c #626264",
"k  c #676567",
"l  c #736762",
"z  c #726C6A",
"x  c #7B726E",
"c  c #6B6F74",
"v  c #6E7276",
"b  c #757379",
"n  c #7B7B7C",
"m  c #737076",
"M  c #837A77",
"N  c #827C7D",
"B  c #234787",
"V  c #274880",
"C  c #234788",
"Z  c #264A8B",
"A  c #2A4D8C",
"S  c #2E528F",
"D  c #32538F",
"F  c #2E5393",
"G  c #325491",
"H  c #3C5D96",
"J  c #355A98",
"K  c #1B608B",
"L  c #1F6590",
"P  c #256289",
"I  c #226692",
"U  c #3C6196",
"Y  c #3B759A",
"T  c #325BA1",
"R  c #0F78B8",
"E  c #1276B4",
"W  c #3B64A7",
"Q  c #2C79B9",
"!  c #327FB6",
"~  c #415B83",
"^  c #4C5F83",
"/  c #406086",
"(  c #436587",
")  c #516983",
"_  c #5F6C8C",
"`  c #5B7087",
"'  c #43649C",
"]  c #436F9B",
"[  c #4A6895",
"{  c #546F9F",
"}  c #5B7394",
"|  c #65728D",
" . c #697689",
".. c #7D7E83",
"X. c #687A98",
"o. c #4D6CA2",
"O. c #4B6FAC",
"+. c #536FA0",
"@. c #4770A1",
"#. c #5975A6",
"$. c #5574AA",
"%. c #5778A8",
"&. c #627DAB",
"*. c #607FB4",
"=. c #177EC3",
"-. c #2883BA",
";. c #3287BB",
":. c #5A83B7",
">. c #7386A7",
",. c #7991AC",
"<. c #6D8DB4",
"1. c #728BB3",
"2. c #778FB9",
"3. c #7A8FB4",
"4. c #7E95BC",
"5. c #7894BB",
"6. c #0C83CE",
"7. c #0B80C7",
"8. c #1883C5",
"9. c #0E85D1",
"0. c #178BDC",
"q. c #198CDD",
"w. c #2288C5",
"e. c #3D88D8",
"r. c #2992D7",
"t. c #349ADE",
"y. c #3A9DDD",
"u. c #2E8FE2",
"i. c #328FE3",
"p. c #2190E6",
"a. c #3D92E6",
"s. c #3790E4",
"d. c #5B8DC8",
"f. c #5C90CD",
"g. c #4C8EDD",
"h. c #518DD5",
"j. c #5D92D1",
"k. c #5E98DF",
"l. c #5D95D9",
"z. c #6593CB",
"x. c #6390C5",
"c. c #7596C0",
"v. c #6898D1",
"b. c #699CDA",
"n. c #6CA0DD",
"m. c #72A0D5",
"M. c #78A5DB",
"N. c #7AA4D6",
"B. c #4C8FE1",
"V. c #4295E7",
"C. c #4D92E4",
"Z. c #4098E0",
"A. c #4695E9",
"S. c #4C94EA",
"D. c #4899EA",
"F. c #5092E1",
"G. c #5197EB",
"H. c #5B9CEB",
"J. c #579AEC",
"K. c #4A97F1",
"L. c #649FE7",
"P. c #4BA6E7",
"I. c #5DA1ED",
"U. c #6EA4E5",
"Y. c #64A4EE",
"T. c #6CA6EB",
"R. c #6CA9EE",
"E. c #71A6E4",
"W. c #73ACED",
"Q. c #78AEEF",
"!. c #72A8E7",
"~. c #7CB7EF",
"^. c #7FB9EF",
"/. c #62A4F4",
"(. c #6AAAF3",
"). c #6DAEFB",
"_. c #74B2FC",
"`. c #7AB0F1",
"'. c #888788",
"]. c #898A8D",
"[. c #888586",
"{. c #8E8F91",
"}. c #919396",
"|. c #9B999C",
" X c #9B9697",
".X c #8091A6",
"XX c #8A95A7",
"oX c #9B9EA3",
"OX c #8596B1",
"+X c #8B9AB5",
"@X c #8896B2",
"#X c #9CA0A9",
"$X c #91A3BE",
"%X c #A3A6AA",
"&X c #BDAFA8",
"*X c #AAAEB3",
"=X c #AEB3B9",
"-X c #ACB1B7",
";X c #B2B6BC",
":X c #B3B8BE",
">X c #B6B0B1",
",X c #95A6C3",
"<X c #97A9C7",
"1X c #99A8C3",
"2X c #89ACD3",
"3X c #81AADA",
"4X c #8CB1DB",
"5X c #A4B4CE",
"6X c #B5BCC4",
"7X c #BABEC3",
"8X c #B8BFC8",
"9X c #B2B9CD",
"0X c #AFBDD4",
"qX c #8AB2E2",
"wX c #9FBFE6",
"eX c #86BEF0",
"rX c #8DBBF3",
"tX c #81B6F5",
"yX c #BDC1C5",
"uX c #BCC4CC",
"iX c #ABC0D9",
"pX c #BEC7D0",
"aX c #BFC8D2",
"sX c #8DC3F1",
"dX c #95CAF1",
"fX c #96C5FA",
"gX c #B7CCE4",
"hX c #AACEF9",
"jX c #A6CCFA",
"kX c #AAD8F3",
"lX c #BFD8F7",
"zX c #B2D3FC",
"xX c #B1D0F6",
"cX c #C3C2C7",
"vX c #C2C6CA",
"bX c #C6C9CD",
"nX c #C3CBD4",
"mX c #C5CFD9",
"MX c #CCD1D6",
"NX c #C7D1DC",
"BX c #CAD3DE",
"VX c #D2D7DE",
"CX c #CBD6E1",
"ZX c #CED8E4",
"AX c #D4DCE4",
"SX c #D4DEE9",
"DX c #DADDE1",
"FX c #C0DAF9",
"GX c #DAE1EA",
"HX c #DAE2EA",
"JX c #DDE7F2",
"KX c #E6E8EC",
"LX c #E4EBF2",
"PX c #E9EDF1",
"IX c #EDF2F6",
"UX c None",
/* pixels */
"UXUXUXUXUXUXUXUXUXUXUXUXUXUXUXUXUXUXUXUXUXUXUXUXUXUXUXUXUXUXUXUX",
"UXUXUXUXUXUXUXUXUXUXUXUXUXX.>.3.3.>.X.UXUXUXUXUXUXUXUXUXUXUXUXUX",
"UXUXUXUXUXUXUXUXUXUX~ #.%.$.o.o.o.o.+.$.$.[ UXUXUXUXUXUXUXUXUXUX",
"UXUXUXUXUXUXUXUX~ *.4.' G G G F F F G G J ' O.' UXUXUXUXUXUXUXUX",
"UXUXUXUXUXUXh : [ 2.&.A A A A Z Z Z A A A A A J W 3 UXUXUXUXUXUX",
"UXUXUXUXUX5.c.q +XU Z A Z C S H ' H A C A A A A F T V UXUXUXUXUX",
"UXUXUXUX:.fX4.M 9XS Z C ' 4.,X$X$X,X<X1.G C A A A A F 4 UXUXUXUX",
"UXUXUX/ _.hXwX..cXD C 1.1X| r t - ; d +X5X+.B A A A A F , UXUXUX",
"UXUXUX(.Y.xXzXOX&X>.2.@X; w g ] ] s w $ _ 0X#.B A A A Z ' UXUXUX",
"UXUXd./.G.Q.`.rXXX>XOX% a ! Z.D.A.e.Q -.< _ 5X' A A A A A | UXUX",
"UXUX_.G.S.J.R.tXqX Xb 2 -.P.I.Y.W.(.K.p.w.: ; < > 3 4 A Z { UXUX",
"UX[ ).S.S.J.T.Q.jX#XM K y.V.Y.eXdXeXY.a.t.Y x N p 0 $ % < ^ v UX",
"UXz./.S.S.G.Y.W.zXXX0 L y.a.R.sXkXdXR.a.y.Y k KXVX:X Xz u @ c UX",
"UXU.H.S.S.S.H.Y.zX.X+ P r.i.I.~.sX^.Y.i.r.( e DXSXCXCXnX*Xj j UX",
"UXT.H.S.S.S.G.H.hX+X& 2 =.0.V.H.Y.I.A.q.;.: u HXAXNXmXnXnX8XoXi ",
"UXT.H.S.S.S.S.G.rXiXw - I 7.0.u.s.u.0.8.7 . n PXBXNXmXnXuX6X7Xj ",
"UX!.H.S.S.S.S.S.Y.lX .# , P R 6.9.6.E 1 O o 7XLXNXNXnXaXuX:X:Xj ",
"UXE.L.C.S.S.S.S.S.rXgXf O * > 6 5 6 = X   '.IXZXNXmXnXuX8X;X=Xi ",
"UXv.U.C.S.S.S.S.S.S.jXgX .8 o o       + {.PXGXNXNXmXnXuX6X-X*XUX",
"UX%.!.F.C.S.S.S.S.S.S.fXFX$XN p u k '.bXIXGXNXNXmXnXpX8X;X*X%XUX",
"UX7 !.k.B.C.S.S.S.S.S.K.M.|.k  XKXPXIXLXAXNXNXNXmXnXuX6X-X=X{.UX",
"UXUXj.n.g.C.C.S.S.S.S.:.m p *XLXHXSXZXCXBXNXNXmXnXuX8X;X*X7Xe UX",
"UXUX( b.l.g.C.C.S.C.#.l z nXJXZXZXCXCXBXNXNXmXnXpXuX6X-X:X%XUXUX",
"UXUXUXx.b.h.g.C.g.} l [.AXHXZXZXCXCXBXNXNXmXnXaXuX6X=X;XyX9 UXUX",
"UXUXUX: m.j.h.F.U p >XJXSXZXCXCXBXBXNXNXmXnXnXuX6X=X:XcXn UXUXUX",
"UXUXUXUX) M.f.h.@.0 MXSXCXCXCXBXNXNXNXmXnXnXuX6X:X6XvX}.UXUXUXUX",
"UXUXUXUXUX` 3Xf.j.~ n SXCXBXNXNXNXNXmXnXpXuX8X7XyXvX}.UXUXUXUXUX",
"UXUXUXUXUXUXa 2Xm.z.s ..BXCXNXNXmXnXnXuXuXuXuXbXvXb UXUXUXUXUXUX",
"UXUXUXUXUXUXUXUX,.4XN.( c uXAXBXmXnXnXnXnXMXnXoX# UXUXUXUXUXUXUX",
"UXUXUXUXUXUXUXUXUX* >.2X<.) .XnXAXAXVXMX6X].8 UXUXUXUXUXUXUXUXUX",
"UXUXUXUXUXUXUXUXUXUXUXUXr h d , r i i UXUXUXUXUXUXUXUXUXUXUXUXUX",
"UXUXUXUXUXUXUXUXUXUXUXUXUXUXUXUXUXUXUXUXUXUXUXUXUXUXUXUXUXUXUXUX"
};
