<?xml version="1.0" encoding="utf-8"?>
<!-- Generator: Adobe Illustrator 17.1.0, SVG Export Plug-In . SVG Version: 6.00 Build 0)  -->
<!DOCTYPE svg PUBLIC "-//W3C//DTD SVG 1.1//EN" "http://www.w3.org/Graphics/SVG/1.1/DTD/svg11.dtd">
<svg version="1.1" id="Layer_1" xmlns="http://www.w3.org/2000/svg" xmlns:xlink="http://www.w3.org/1999/xlink" x="0px" y="0px"
	 viewBox="0 0 355.5 352.5" enable-background="new 0 0 355.5 352.5" xml:space="preserve">
<g>
	<circle fill="#4788F4" cx="182.8" cy="176" r="163.9"/>
	<circle fill="#3F87FF" cx="182.8" cy="176" r="163.9"/>
	<g opacity="0.5">
		<defs>
			<path id="SVGID_1_" opacity="0.5" d="M286.1,17.8l-252,357.7c-9.3,69.8,187.6,72.8,238.1,43.7c47-27.2,125.7-73.5,124-158.1
				C394.5,176.4,348.5,15.2,286.1,17.8z"/>
		</defs>
		<clipPath id="SVGID_2_">
			<use xlink:href="#SVGID_1_"  overflow="visible"/>
		</clipPath>
		<linearGradient id="SVGID_3_" gradientUnits="userSpaceOnUse" x1="303.0323" y1="-12.4325" x2="116.4693" y2="279.9136">
			<stop  offset="0" style="stop-color:#4788F4"/>
			<stop  offset="1" style="stop-color:#3360AD"/>
		</linearGradient>
		<circle clip-path="url(#SVGID_2_)" fill="url(#SVGID_3_)" cx="182.8" cy="176" r="163.9"/>
	</g>
	<circle fill="#9DBEF2" stroke="#29508F" stroke-width="15.5552" stroke-miterlimit="10" cx="182.6" cy="173.6" r="54.9"/>
	<linearGradient id="SVGID_4_" gradientUnits="userSpaceOnUse" x1="225.0402" y1="213.4908" x2="309.5199" y2="286.2732">
		<stop  offset="0" style="stop-color:#1A1A1A"/>
		<stop  offset="1" style="stop-color:#FFFFFF;stop-opacity:0"/>
	</linearGradient>
	<polygon opacity="0.1" fill="url(#SVGID_4_)" points="460.4,342.1 296.8,350.5 144.1,223.3 186.5,230.3 219.1,214.8 236,185.1 
		238.4,145.5 	"/>
	
		<line fill="none" stroke="#214175" stroke-width="15.5552" stroke-linecap="round" stroke-miterlimit="10" x1="224.5" y1="211.6" x2="268.6" y2="251.6"/>
	<circle fill="none" stroke="#29508F" stroke-width="15.5552" stroke-miterlimit="10" cx="182.6" cy="173.6" r="54.9"/>
	<path fill="#214175" d="M150.1,185.4c1.5,14,15.2,25,31.8,25c16.6,0,30.2-11,31.8-25H150.1z"/>
	<path fill="none" stroke="#222222" stroke-width="15.5552" stroke-linecap="round" stroke-miterlimit="10" d="M239.8,198.8"/>
	<g>
		<g>
			<g>
				<path fill="#214175" d="M157.3,152.5c-4.1,0-7.5,5.6-7.5,12.6c0,7,3.4,12.6,7.5,12.6c4.1,0,7.5-5.6,7.5-12.6
					C164.8,158.2,161.5,152.5,157.3,152.5z M207.4,152.5c-4.1,0-7.5,5.6-7.5,12.6c0,7,3.4,12.6,7.5,12.6c4.1,0,7.5-5.6,7.5-12.6
					C214.9,158.2,211.5,152.5,207.4,152.5z"/>
			</g>
		</g>
	</g>
	<linearGradient id="SVGID_5_" gradientUnits="userSpaceOnUse" x1="97.7798" y1="99.6319" x2="182.315" y2="172.4622">
		<stop  offset="0" style="stop-color:#1A1A1A"/>
		<stop  offset="1" style="stop-color:#FFFFFF;stop-opacity:0"/>
	</linearGradient>
	<polygon opacity="0.1" fill="url(#SVGID_5_)" points="339.5,221.1 171.9,245.8 13.2,113.5 119.9,45.7 	"/>
	<g>
		<path fill="#E8E8E8" d="M127.4,108.3c0,7.8-6.3,14.1-14.1,14.1H26.5c-7.8,0-14.1-6.3-14.1-14.1V60.5c0-7.8,6.3-14.1,14.1-14.1
			h86.8c7.8,0,14.1,6.3,14.1,14.1V108.3z"/>
	</g>
	<path fill="#E8E8E8" d="M106.8,116.9c0,0-3.5,31.7,7.9,33.5c11.5,1.8-40.6,4.4-40.6-29.1s29.1-4.4,29.1-4.4"/>
	<path opacity="0.2" fill="none" stroke="#F2F2F2" stroke-width="14.1051" stroke-linecap="round" d="M174.8,140.5
		c0,0-19.4,3.1-22.7,19.2"/>
	<path fill="#4788F4" d="M317.5,61"/>
	
		<line opacity="0.4" fill="none" stroke="#4788F4" stroke-width="6" stroke-linecap="round" stroke-miterlimit="10" x1="28.4" y1="67.4" x2="101.4" y2="67.4"/>
	
		<line opacity="0.4" fill="none" stroke="#4788F4" stroke-width="6" stroke-linecap="round" stroke-miterlimit="10" x1="28.4" y1="84.4" x2="91.4" y2="84.4"/>
	
		<line opacity="0.4" fill="none" stroke="#4788F4" stroke-width="6" stroke-linecap="round" stroke-miterlimit="10" x1="28.4" y1="101.4" x2="91.4" y2="101.4"/>
</g>
</svg>
