<?xml version="1.0" encoding="utf-8"?>
<!-- Generator: Adobe Illustrator 18.0.0, SVG Export Plug-In . SVG Version: 6.00 Build 0)  -->
<!DOCTYPE svg PUBLIC "-//W3C//DTD SVG 1.1//EN" "http://www.w3.org/Graphics/SVG/1.1/DTD/svg11.dtd">
<svg version="1.1" id="Layer_2" xmlns="http://www.w3.org/2000/svg" xmlns:xlink="http://www.w3.org/1999/xlink" x="0px" y="0px"
	 viewBox="0 0 156 99" enable-background="new 0 0 156 99" xml:space="preserve">
<g>
	<rect x="48.2" y="55" fill="#51C1FF" width="108" height="26.7"/>
	<path fill="#D4DDE1" d="M64,44c0,2.2-1.8,4-4,4H4c-2.2,0-4-1.8-4-4v-1c0-2.2,1.8-4,4-4h56c2.2,0,4,1.8,4,4V44z"/>
	<path fill="#D4DDE1" d="M138,44c0,2.2-1.8,4-4,4H78c-2.2,0-4-1.8-4-4v-1c0-2.2,1.8-4,4-4h56c2.2,0,4,1.8,4,4V44z"/>
	<path fill="#17F9FF" d="M145.9,69c0,2.2-1.8,4-4,4H62.2c-2.2,0-4-1.8-4-4v-1c0-2.2,1.8-4,4-4h79.7c2.2,0,4,1.8,4,4V69z"/>
	<path fill="#D4DDE1" d="M37.8,69c0,2.2-1.8,4-4,4H4c-2.2,0-4-1.8-4-4v-1c0-2.2,1.8-4,4-4h29.8c2.2,0,4,1.8,4,4V69z"/>
	<path fill="#D4DDE1" d="M79,95c0,2.2-1.8,4-4,4H4c-2.2,0-4-1.8-4-4v-1c0-2.2,1.8-4,4-4h71c2.2,0,4,1.8,4,4V95z"/>
	<path fill="#D4DDE1" d="M119.1,95c0,2.2-1.8,4-4,4H93c-2.2,0-4-1.8-4-4v-1c0-2.2,1.8-4,4-4h22.1c2.2,0,4,1.8,4,4V95z"/>
	<g>
		<path fill="#448AFF" d="M122.2,21c0-11-9-20-20-20s-20,9-20,20c0,4.8,1.7,9.1,4.5,12.6c0,0,0,0,0,0l15.5,20l15.9-20.4c0,0,0,0,0,0
			C120.6,29.8,122.2,25.6,122.2,21z"/>
	</g>
	<path fill="#FFFFFF" d="M106.2,23.1l-0.9-0.7c-0.3-0.3-0.7-0.6-0.7-1.2c0-0.6,0.4-1.1,0.9-1.4c1.1-0.9,2.2-1.8,2.2-3.7
		c0-1.8-1.1-2.8-1.7-3.3h1.5l1-1.2h-5.3c-3.8,0-5.6,2.4-5.6,5c0,2,1.5,4.1,4.3,4.1h0.7c-0.1,0.3-0.3,0.7-0.3,1.1
		c0,0.9,0.3,1.2,0.8,1.7c-1.2,0.1-3.4,0.3-5,1.4c-1.5,0.9-2,2.2-2,3.2c0,2,1.8,3.8,5.6,3.8c4.6,0,6.8-2.6,6.8-5
		C108.4,25.1,107.4,24.1,106.2,23.1z M99.7,15.3c0-1.9,1.1-2.7,2.3-2.7c2.2,0,3.4,3,3.4,4.7c0,2.2-1.8,2.7-2.5,2.7
		C100.9,19.9,99.7,17.3,99.7,15.3z M102.8,30.7c-2.8,0-4.6-1.3-4.6-3.2c0-1.9,1.7-2.5,2.2-2.7c1.1-0.3,2.6-0.4,2.8-0.4h0.6
		c2.1,1.5,2.9,2.1,2.9,3.4C106.8,29.4,105.1,30.7,102.8,30.7z"/>
</g>
</svg>
