<svg width="64" height="64" xmlns="http://www.w3.org/2000/svg" xmlns:xlink="http://www.w3.org/1999/xlink"><defs><radialGradient cx="50%" cy="1.686%" fx="50%" fy="1.686%" r="98.314%" id="b"><stop stop-color="#FFF" stop-opacity=".08" offset="0%"/><stop stop-color="#FFF" stop-opacity="0" offset="100%"/></radialGradient><circle id="a" cx="29.333" cy="29.333" r="29.333"/><filter x="-.9%" y="-.9%" width="101.7%" height="101.7%" filterUnits="objectBoundingBox" id="c"><feOffset dy="1" in="SourceAlpha" result="shadowOffsetInner1"/><feComposite in="shadowOffsetInner1" in2="SourceAlpha" operator="arithmetic" k2="-1" k3="1" result="shadowInnerInner1"/><feColorMatrix values="0 0 0 0 1 0 0 0 0 1 0 0 0 0 1 0 0 0 0.2 0" in="shadowInnerInner1" result="shadowMatrixInner1"/><feOffset dy="-1" in="SourceAlpha" result="shadowOffsetInner2"/><feComposite in="shadowOffsetInner2" in2="SourceAlpha" operator="arithmetic" k2="-1" k3="1" result="shadowInnerInner2"/><feColorMatrix values="0 0 0 0 0 0 0 0 0 0 0 0 0 0 0 0 0 0 0.2 0" in="shadowInnerInner2" result="shadowMatrixInner2"/><feMerge><feMergeNode in="shadowMatrixInner1"/><feMergeNode in="shadowMatrixInner2"/></feMerge></filter><linearGradient x1="40.37%" y1="50%" x2="94.309%" y2="97.356%" id="d"><stop stop-opacity=".2" offset="0%"/><stop stop-opacity=".02" offset="100%"/></linearGradient><path d="M21.175 46.376c-4.944-2.66-8.132-7.89-8.238-14.803-.478.242-1.022.283-1.648.054-1.792-.653-1.39-2.836-.732-4.782.544-1.612 2.403-2.789 3.314-3.035 2.119-8.12 7.09-14.477 15.462-14.477 8.472 0 13.478 6.095 15.537 14.499.934.287 2.71 1.444 3.24 3.013.657 1.946 1.06 4.129-.732 4.782-.626.229-1.17.188-1.648-.054-.096 6.958-3.284 12.167-8.226 14.813.298.24.467.55.467.947 0 1.289.627 2.334-3.971 2.334-3.356 0-3.928-.71-3.993-1.483-.223-.14-.448-.35-.674-.35-.226 0-.451.227-.675.367-.071.766-.66 1.466-3.991 1.466-4.599 0-3.972-1.045-3.972-2.334 0-.402.174-.716.48-.957zM29.333 45c9.555 0 13-6.783 13-15.8 0-7.481-3.133-14.352-8.333-15.499-1.667-.368-2.833 3.632-4.667 3.632-1.833 0-3.166-4-4.666-3.632-5.222 1.28-8.334 8.413-8.334 15.5 0 8.507 3.446 15.799 13 15.799zm-6-20a2 2 0 1 1 0-4 2 2 0 0 1 0 4zm12 0a2 2 0 1 1 0-4 2 2 0 0 1 0 4zm-5.638 1.08l2.745 1.204a.926.926 0 0 1 .311 1.481L30.022 31.7a.95.95 0 0 1-1.389-.002l-2.72-2.941a.923.923 0 0 1 .31-1.478l2.705-1.197a.952.952 0 0 1 .767 0z" id="g"/><filter x="-10.3%" y="-9.9%" width="125.9%" height="124.8%" filterUnits="objectBoundingBox" id="f"><feOffset dx="1" dy="1" in="SourceAlpha" result="shadowOffsetOuter1"/><feGaussianBlur stdDeviation="1.5" in="shadowOffsetOuter1" result="shadowBlurOuter1"/><feColorMatrix values="0 0 0 0 0 0 0 0 0 0 0 0 0 0 0 0 0 0 0.1 0" in="shadowBlurOuter1"/></filter><filter x="-6.5%" y="-6.2%" width="118.1%" height="117.4%" filterUnits="objectBoundingBox" id="h"><feOffset dy="1" in="SourceAlpha" result="shadowOffsetInner1"/><feComposite in="shadowOffsetInner1" in2="SourceAlpha" operator="arithmetic" k2="-1" k3="1" result="shadowInnerInner1"/><feColorMatrix values="0 0 0 0 1 0 0 0 0 1 0 0 0 0 1 0 0 0 0.4 0" in="shadowInnerInner1"/></filter></defs><g transform="translate(2.667 2.667)" fill="none" fill-rule="evenodd"><mask id="e" fill="#fff"><use xlink:href="#a"/></mask><use fill="#4B4B4B" xlink:href="#a"/><use fill="url(#b)" xlink:href="#a"/><use fill="#000" filter="url(#c)" xlink:href="#a"/><path d="M21.204 49.085c.521.31 1.53.494 3.463.494 3.33 0 3.92-.7 3.991-1.466.224-.14.449-.367.675-.367.226 0 .45.21.674.35.065.773.637 1.483 3.993 1.483 4.598 0 3.971-1.045 3.971-2.333 0-.398-.169-.708-.467-.948 4.942-2.646 8.13-7.855 8.226-14.813.478.242 1.022.283 1.648.055 1.792-.654 1.39-2.837.732-4.783-.53-1.57-2.306-2.726-3.24-3.013-.872-3.559-2.272-6.703-4.24-9.146l17.92 18.069c-1.628 14.36-13.623 25.575-28.319 25.982l-9.027-9.564zm16.723-37.114l.04-.059.39.394a13.951 13.951 0 0 0-.43-.335z" fill="url(#d)" mask="url(#e)"/><g mask="url(#e)"><use fill="#000" filter="url(#f)" xlink:href="#g"/><use fill="#FAFAFA" xlink:href="#g"/><use fill="#000" filter="url(#h)" xlink:href="#g"/></g></g></svg>