<svg xmlns="http://www.w3.org/2000/svg" width="528" height="528" viewBox="0 0 528 528">
  <g fill="none" fill-rule="evenodd">
    <path stroke="#34A853" stroke-width="14" d="M236.5168,46.4546 C211.6008,56.9946 194.1188,81.6626 194.1188,110.4166 L194.1188,148.8406"/>
    <path stroke="#FBBC05" stroke-width="14" d="M322.01,72.9878 C309.668,53.7498 288.092,40.9998 263.538,40.9998 C253.952,40.9998 244.822,42.9438 236.516,46.4538"/>
    <path stroke="#EA4335" stroke-width="14" d="M332.955,156.7164 L332.955,110.4184 C332.955,96.6344 328.937,83.7884 322.009,72.9884"/>
    <path stroke="#3E82F1" stroke-width="14" d="M332.955,195.5248 L332.955,156.7168"/>
    <path fill="#FBBC05" d="M303.6044,270.062 C303.0524,270.062 302.5024,269.928 302.0204,269.656 C288.7904,262.924 277.3524,260.068 263.6404,260.068 C249.9984,260.068 237.0444,263.264 225.2624,269.656 C223.6084,270.538 221.5404,269.928 220.5764,268.294 C219.6804,266.664 220.3004,264.554 221.9544,263.672 C234.7704,256.802 248.8264,253.268 263.6404,253.268 C278.3164,253.268 291.1324,256.462 305.1884,263.604 C306.9124,264.488 307.5324,266.526 306.6364,268.16 C306.0164,269.382 304.8444,270.062 303.6044,270.062"/>
    <path fill="#E74133" d="M205.0042,305.7632 C204.3162,305.7632 203.6262,305.5572 203.0062,305.1512 C201.4222,304.0612 201.0762,301.9552 202.1802,300.3892 C209.0002,290.8712 217.6822,283.3892 228.0182,278.1552 C249.6542,267.1392 277.3522,267.0712 299.0562,278.0872 C309.3922,283.3232 318.0742,290.7352 324.8962,300.1872 C325.9982,301.6832 325.6542,303.8592 324.0682,304.9472 C322.4842,306.0352 320.3482,305.6952 319.2462,304.1312 C313.0442,295.5612 305.1902,288.8312 295.8882,284.1372 C276.1122,274.1412 250.8242,274.1412 231.1182,284.2072 C221.7482,288.9672 213.8922,295.7672 207.6922,304.3352 C207.1402,305.2872 206.1062,305.7632 205.0042,305.7632"/>
    <path fill="#32A753" d="M248.0686,387.8394 C247.1726,387.8394 246.2766,387.4994 245.6566,386.8194 C239.6626,380.9034 236.4246,377.0954 231.8066,368.8674 C227.0526,360.5034 224.5726,350.3014 224.5726,339.3554 C224.5726,319.1594 242.0746,302.7034 263.5726,302.7034 C285.0686,302.7034 302.5706,319.1594 302.5706,339.3554 C302.5706,341.2594 301.0546,342.7554 299.1266,342.7554 C297.1966,342.7554 295.6806,341.2594 295.6806,339.3554 C295.6806,322.8994 281.2806,309.5034 263.5726,309.5034 C245.8646,309.5034 231.4626,322.8994 231.4626,339.3554 C231.4626,349.1454 233.6686,358.1914 237.8706,365.5354 C242.2806,373.3554 245.3126,376.6874 250.6186,381.9914 C251.9266,383.3514 251.9266,385.4594 250.6186,386.8194 C249.8606,387.4994 248.9646,387.8394 248.0686,387.8394"/>
    <path fill="#FBBC05" d="M297.4722,375.2592 C289.2722,375.2592 282.0382,373.2172 276.1122,369.2072 C265.8462,362.3392 259.7122,351.1872 259.7122,339.3552 C259.7122,337.4512 261.2282,335.9552 263.1582,335.9552 C265.0882,335.9552 266.6042,337.4512 266.6042,339.3552 C266.6042,348.9432 271.5642,357.9872 279.9702,363.5612 C284.8622,366.8272 290.5822,368.3892 297.4722,368.3892 C299.1262,368.3892 301.8822,368.1872 304.6382,367.7112 C306.4982,367.3712 308.2902,368.5952 308.6342,370.4992 C308.9782,372.3352 307.7382,374.1032 305.8102,374.4432 C301.8822,375.1912 298.4362,375.2592 297.4722,375.2592"/>
    <path fill="#3E82F1" d="M283.6226,389.267 C283.3466,389.267 283.0026,389.199 282.7266,389.131 C271.7706,386.139 264.6046,382.127 257.0946,374.851 C247.4486,365.399 242.1426,352.819 242.1426,339.355 C242.1426,328.339 251.6526,319.363 263.3646,319.363 C275.0786,319.363 284.5866,328.339 284.5866,339.355 C284.5866,346.631 290.9946,352.547 298.9186,352.547 C306.8426,352.547 313.2506,346.631 313.2506,339.355 C313.2506,313.719 290.8566,292.911 263.2966,292.911 C243.7286,292.911 225.8126,303.655 217.7506,320.313 C215.0646,325.823 213.6866,332.283 213.6866,339.355 C213.6866,344.659 214.1686,353.023 218.3026,363.903 C218.9906,365.671 218.0966,367.641 216.3046,368.255 C214.5126,368.935 212.5146,367.983 211.8946,366.283 C208.5186,357.375 206.8646,348.535 206.8646,339.355 C206.8646,331.195 208.4486,323.783 211.5506,317.323 C220.7146,298.351 241.0406,286.043 263.2966,286.043 C294.6466,286.043 320.1406,309.911 320.1406,339.287 C320.1406,350.303 310.6326,359.279 298.9186,359.279 C287.2066,359.279 277.6966,350.303 277.6966,339.287 C277.6966,332.011 271.2886,326.095 263.3646,326.095 C255.4406,326.095 249.0326,332.011 249.0326,339.287 C249.0326,350.915 253.5806,361.795 261.9186,369.955 C268.4646,376.347 274.7346,379.883 284.4486,382.535 C286.3106,383.011 287.3426,384.915 286.8606,386.683 C286.5166,388.247 285.0706,389.267 283.6226,389.267"/>
    <path stroke="#DADCE0" stroke-width="8" d="M132,447.0074 L395.074,447.0074 C408.33,447.0074 419.074,436.2634 419.074,423.0074 L419.074,219.5254 C419.074,206.2714 408.33,195.5254 395.074,195.5254 L132,195.5254 C118.746,195.5254 108,206.2714 108,219.5254 L108,423.0074 C108,436.2634 118.746,447.0074 132,447.0074 Z"/>
    <rect width="528" height="528"/>
  </g>
</svg>
