<!-- Copyright 2019 The Chromium Authors. All rights reserved.
     Use of this source code is governed by a BSD-style license that can be
     found in the LICENSE file. -->

<svg height="20" viewBox="0 0 20 20" width="20" xmlns="http://www.w3.org/2000/svg"><path d="m12.5628571 9.5c0 1.3833333-1.14 2.5-2.5628571 2.5-1.42285714 0-2.57142857-1.1166667-2.57142857-2.5v-5c0-1.38333333 1.14857143-2.5 2.57142857-2.5 1.4228571 0 2.5714286 1.11666667 2.5714286 2.5zm-2.5080475-6c-.5535468 0-1.00349562.44643954-1.00782973.99996935l-.03915017 5.0000613c-.00002028.0025895-.00003041.00517906-.00003041.00776864 0 .54797731.44422339.99220071.99220071.99220071.5535468 0 1.0034956-.4464395 1.0078297-.99996935l.0391502-5.0000613c.0000202-.0025895.0000304-.00517906.0000304-.00776864 0-.54797732-.4442234-.99220071-.9922007-.99220071zm-.0548096 10.3736842c-2.36571429 0-4.54285714-1.768421-4.54285714-4.29473683h-1.45714286c0 2.88000003 2.33142857 5.24631583 5.14285714 5.65894733v2.7621053h1.71428576v-2.7621053c2.8114285-.4042105 5.1428571-2.7789473 5.1428571-5.65894733h-1.4571429c0 2.52631583-2.1771428 4.29473683-4.5428571 4.29473683z" fill="#E8EAED" fill-rule="evenodd"/></svg>
