<svg xmlns="http://www.w3.org/2000/svg" width="40" height="40" viewBox="0 0 40 40">
  <g fill="none" fill-rule="evenodd">
    <polygon points="0 0 40 0 40 40 0 40"/>
    <path fill="#fff" d="M24.4121429,20 C24.4121429,22.7666667 22.2271429,25 19.5,25 C16.7728571,25 14.5714286,22.7666667 14.5714286,20 L14.5714286,10 C14.5714286,7.23333333 16.7728571,5 19.5,5 C22.2271429,5 24.4285714,7.23333333 24.4285714,10 L24.4121429,20 Z M19.5,7.5 C18.1192881,7.5 17,8.61928813 17,10 L17,20 C17,21.3807119 18.1192881,22.5 19.5,22.5 C20.8807119,22.5 22,21.3807119 22,20 L22,10 C22,8.61928813 20.8807119,7.5 19.5,7.5 Z M28,20 C28,25.0526316 24.0342857,28.5789474 19.5,28.5789474 C14.9657143,28.5789474 11,25.0526316 11,20 L8,20 C8,25.76 12.6114286,30.6505263 18,31.4757895 L18,37 L21,37 L21,31.4757895 C26.3885714,30.6673684 31,25.76 31,20 L28,20 Z"/>
  </g>
</svg>
