<!-- Copyright 2019 The Chromium Authors. All rights reserved.
     Use of this source code is governed by a BSD-style license that can be
     found in the LICENSE file. -->

<svg height="20" viewBox="0 0 20 20" width="20" xmlns="http://www.w3.org/2000/svg"><path d="m14 10c0-1.104.896-2 2-2 1.105 0 2 .896 2 2 0 1.105-.895 2-2 2-1.104 0-2-.895-2-2zm-2 0c0 1.105-.895 2-2 2-1.104 0-2-.895-2-2 0-1.104.896-2 2-2 1.105 0 2 .896 2 2zm-6 0c0 1.105-.895 2-2 2-1.104 0-2-.895-2-2 0-1.104.896-2 2-2 1.105 0 2 .896 2 2z" fill="#E8EAED" fill-rule="evenodd" transform="matrix(0 1 -1 0 20 0)"/></svg>
