<svg xmlns="http://www.w3.org/2000/svg" width="24" height="24" viewBox="0 0 24 24">
  <path fill="#1A73E8" fill-rule="evenodd" d="M18.0415385,11 L2.76923077,11 C2.32122209,11.1648505 2,11.4746322 2,11.9968 C2,12.5189678 2.32122209,12.8351495 2.76923077,13 L18.0307692,13 L11.5676923,19.9184 C11.3685877,20.1551278 11.2338462,20.4615817 11.2338462,20.8016 C11.2338462,21.464 11.7476923,22 12.3830769,22 C12.7744633,22 13.1206827,21.7956341 13.3279245,21.4829586 L21.4954803,13 C21.7999809,12.7838963 22,12.4088436 22,11.9968 C22,11.599147 21.8137082,11.2183924 21.5269978,11 L13.2824295,2.45372669 C13.0720283,2.17730426 12.7470873,2 12.3830769,2 C11.7476923,2 11.2338462,2.5376 11.2338462,3.2 C11.2338462,3.5377701 11.3674549,3.84309007 11.5826573,4.0612278 L18.0415385,10.7968 L18.0415385,11 Z" transform="matrix(-1 0 0 1 24 0)"/>
</svg>
