<?xml version="1.0" encoding="utf-8"?>
<!-- Generator: Adobe Illustrator 16.0.0, SVG Export Plug-In . SVG Version: 6.00 Build 0)  -->
<!DOCTYPE svg PUBLIC "-//W3C//DTD SVG 1.1//EN" "http://www.w3.org/Graphics/SVG/1.1/DTD/svg11.dtd">
<svg version="1.1"
	 id="svg5959" xmlns:dc="http://purl.org/dc/elements/1.1/" xmlns:cc="http://creativecommons.org/ns#" xmlns:rdf="http://www.w3.org/1999/02/22-rdf-syntax-ns#" xmlns:svg="http://www.w3.org/2000/svg" xmlns:sodipodi="http://sodipodi.sourceforge.net/DTD/sodipodi-0.dtd" xmlns:inkscape="http://www.inkscape.org/namespaces/inkscape" sodipodi:docname="New document 8" inkscape:version="0.48.3.1 r9886"
	 xmlns="http://www.w3.org/2000/svg" xmlns:xlink="http://www.w3.org/1999/xlink" x="0px" y="0px" width="48px" height="48px"
	 viewBox="0 0 48 48" enable-background="new 0 0 48 48" xml:space="preserve">
<sodipodi:namedview  inkscape:window-maximized="0" inkscape:window-y="566" inkscape:window-x="437" inkscape:document-units="px" inkscape:grid-bbox="true" inkscape:current-layer="layer1" inkscape:pageshadow="2" inkscape:window-height="401" inkscape:pageopacity="0.0" inkscape:window-width="534" showgrid="true" inkscape:cy="24" inkscape:cx="24" inkscape:zoom="7" borderopacity="1.0" bordercolor="#666666" pagecolor="#ffffff" id="base">
	</sodipodi:namedview>
<g id="layer1" inkscape:groupmode="layer" inkscape:label="Layer 1">
	<g id="g1682" transform="matrix(1.25,0,0,-1.25,36.051257,32.440573)">
		<path id="path1684" inkscape:connector-curvature="0" fill="#FFFFFF" d="M0.114-0.8l-5.342,5.346h-1.102L-6.819,5.03
			c2.267,2.885,2.064,6.957-0.52,9.551c-2.802,2.799-7.329,2.799-10.138,0c-2.786-2.809-2.788-7.338,0-10.139
			c2.598-2.58,6.629-2.792,9.557-0.513l0.486-0.485V2.342l5.338-5.347c0.324-0.32,1.108-0.198,1.756,0.447
			C0.307-1.908,0.441-1.126,0.114-0.8 M-8.772,5.897L-8.772,5.897h-0.02V5.878c-2.006-1.991-5.24-1.987-7.244,0.008
			c-1.992,2.003-1.992,5.244,0,7.252c2.013,2,5.25,2,7.254,0C-6.784,11.13-6.784,7.899-8.772,5.897"/>
	</g>
</g>
</svg>
