<svg xmlns="http://www.w3.org/2000/svg" xmlns:xlink="http://www.w3.org/1999/xlink" width="454" height="185"><defs><path id="a" d="M.707.43h56.32v56.32H.707z"/><path id="c" d="M7.527 0C3.668 0 .528 3.14.528 7v126c0 3.86 3.14 7 6.999 7h213c3.86 0 7-3.14 7-7V7c0-3.86-3.14-7-7-7"/><path id="e" d="M7.527 0C3.668 0 .528 3.14.528 7v126c0 3.86 3.14 7 6.999 7h213c3.86 0 7-3.14 7-7V7c0-3.86-3.14-7-7-7h-213z"/><path id="g" d="M7.527 0C3.668 0 .528 3.14.528 7v126c0 3.86 3.14 7 6.999 7h213c3.86 0 7-3.14 7-7V7c0-3.86-3.14-7-7-7"/><path id="i" d="M7.527 0C3.668 0 .528 3.14.528 7v126c0 3.86 3.14 7 6.999 7h213c3.86 0 7-3.14 7-7V7c0-3.86-3.14-7-7-7"/></defs><g fill="none" fill-rule="evenodd"><path fill="#F1F3F4" d="M292.172 9.494l-38.26 10.251c-2.134.572-2.848 3.24-1.286 4.802l28.008 28.008c1.562 1.562 4.23.847 4.802-1.287l10.252-38.259c.57-2.134-1.382-4.087-3.516-3.515l-38.26 10.251c-2.134.572-2.848 3.24-1.286 4.802l28.008 28.008c1.562 1.562 4.23.847 4.802-1.287l10.252-38.259c.57-2.134-1.382-4.087-3.516-3.515M90.398 148.926c-1.172.677-1.51 2.225-.714 3.32 7.039 9.677 20.395 12.674 30.99 6.557 10.595-6.117 14.678-19.182 9.815-30.117-.549-1.237-2.059-1.718-3.231-1.04l-36.86 21.28zm268.632-10.515l-28.754 28.754a3.115 3.115 0 0 1-4.406 0l-28.754-28.754a3.115 3.115 0 0 1 0-4.406l28.754-28.754a3.117 3.117 0 0 1 4.406 0l28.754 28.754a3.115 3.115 0 0 1 0 4.406"/><g transform="translate(116 -.43)"><mask id="b" fill="#fff"><use xlink:href="#a"/></mask><path fill="#F1F3F4" d="M57.027 28.59c0 15.553-12.607 28.16-28.16 28.16-15.552 0-28.16-12.607-28.16-28.16C.707 13.038 13.315.43 28.867.43c15.553 0 28.16 12.608 28.16 28.16" mask="url(#b)"/></g><path fill="#FFF" d="M112.527 168.57c-3.859 0-7-3.14-7-7v-126c0-3.86 3.141-7 7-7h213c3.86 0 7 3.14 7 7v126c0 3.86-3.14 7-7 7h-213z"/><g transform="translate(105 28.57)"><mask id="d" fill="#fff"><use xlink:href="#c"/></mask><path fill="#E74133" d="M186.408-14.069L152.47-4.976c-1.892.508-2.527 2.874-1.14 4.26l24.843 24.844c1.386 1.386 3.753.751 4.26-1.142l9.093-33.937c.507-1.893-1.225-3.625-3.118-3.118L152.47-4.976c-1.892.508-2.527 2.874-1.14 4.26l24.843 24.844c1.386 1.386 3.753.751 4.26-1.142l9.093-33.937c.507-1.893-1.225-3.625-3.118-3.118" mask="url(#d)"/><mask id="f" fill="#fff"><use xlink:href="#e"/></mask><path fill="#32A753" d="M-15.803 120.8c-1.191.688-1.535 2.261-.726 3.373 7.154 9.836 20.727 12.881 31.495 6.665 10.768-6.217 14.917-19.495 9.976-30.608-.56-1.257-2.093-1.745-3.284-1.058L-15.803 120.8z" mask="url(#f)"/><mask id="h" fill="#fff"><use xlink:href="#g"/></mask><path fill="#F9BB00" d="M252.702 109.755l-28.26 28.261a3.062 3.062 0 0 1-4.332 0l-28.262-28.26a3.064 3.064 0 0 1 0-4.332l28.262-28.26a3.062 3.062 0 0 1 4.331 0l28.261 28.26a3.064 3.064 0 0 1 0 4.331" mask="url(#h)"/><mask id="j" fill="#fff"><use xlink:href="#i"/></mask><path fill="#4285F4" d="M68.027-.25c0 15.464-12.536 28-28 28s-28-12.536-28-28 12.536-28 28-28 28 12.536 28 28" mask="url(#j)"/></g><g><path fill="#F1F3F4" d="M328.527 161.57a3 3 0 0 1-3 3h-213a3 3 0 0 1-3-3v-126a3 3 0 0 1 3-3h213a3 3 0 0 1 3 3v126zm4.5-141.5h-228a6.508 6.508 0 0 0-6.5 6.5v153.5h241V26.57c0-3.584-2.916-6.5-6.5-6.5z"/><path stroke="#DADCE0" stroke-width="2" d="M98.527 180.07V26.57c0-3.584 2.916-6.5 6.5-6.5h228c3.584 0 6.5 2.916 6.5 6.5v153.5h-241z"/><path fill="#DADCE0" d="M220.527 26.57a1.5 1.5 0 1 1-3 0 1.5 1.5 0 0 1 3 0m105 150h-12a1.5 1.5 0 0 0-1.5 1.5h15a1.5 1.5 0 0 0-1.5-1.5m-18 0h-12a1.5 1.5 0 0 0-1.5 1.5h15a1.5 1.5 0 0 0-1.5-1.5m-18 0h-12a1.5 1.5 0 0 0-1.5 1.5h15a1.5 1.5 0 0 0-1.5-1.5m-165 0h-12a1.5 1.5 0 0 0-1.5 1.5h15a1.5 1.5 0 0 0-1.5-1.5m18 0h-12a1.5 1.5 0 0 0-1.5 1.5h15a1.5 1.5 0 0 0-1.5-1.5m18 0h-12a1.5 1.5 0 0 0-1.5 1.5h15a1.5 1.5 0 0 0-1.5-1.5m111 0h-105a1.5 1.5 0 0 0-1.5 1.5h108a1.5 1.5 0 0 0-1.5-1.5"/><path fill="#F1F1F1" d="M219.027 86.382c6.316 0 11.438 5.121 11.438 11.438s-5.122 11.438-11.438 11.438c-6.316 0-11.438-5.121-11.438-11.438s5.122-11.438 11.438-11.438"/><path fill="#E74133" d="M217.527 97.82a7.5 7.5 0 0 1 7.5-7.5h14.701c-2.73-5.342-8.289-9-14.7-9-5.826 0-10.945 3.019-13.882 7.576v12.674h7.386l.001-.001a7.455 7.455 0 0 1-1.006-3.749"/><path fill="#32A753" d="M225.027 105.32a7.496 7.496 0 0 1-6.494-3.75l-7.389-12.671a16.424 16.424 0 0 0-2.617 8.921c0 8.853 6.973 16.077 15.726 16.481l7.271-7.271v-5.46h-.003a7.496 7.496 0 0 1-6.494 3.75"/><path fill="#F9BB00" d="M239.729 90.32h-14.701a7.5 7.5 0 0 1 6.495 11.248l.002.002-7.28 12.731c.259.012.52.019.783.019 9.112 0 16.5-7.387 16.5-16.5 0-2.701-.65-5.25-1.8-7.5"/><path fill="#4285F4" d="M225.027 91.82a6 6 0 0 1 0 12 6 6 0 0 1 0-12"/><path fill="#F1F3F4" d="M81.027 184.57c-1.103 0-2-.897-2-2v-3a.5.5 0 0 1 .5-.5h279a.5.5 0 0 1 .5.5v3c0 1.103-.897 2-2 2h-276zM376.788 48.278c-1.15 1.04-1.092 2.884.145 3.821 5.88 4.453 14.278 4.246 19.948-.884 5.67-5.13 6.714-13.466 2.87-19.76-.81-1.324-2.64-1.567-3.79-.526l-19.173 17.348zm46.88 114.718c-.307 6.134-5.528 10.86-11.663 10.552-6.134-.306-10.858-5.528-10.552-11.662.307-6.135 5.528-10.859 11.662-10.553 6.135.307 10.859 5.53 10.553 11.663"/><path fill="#4285F4" d="M373.426 95.324l.34-6.812c.077-1.538-1.54-2.582-2.91-1.88l-6.07 3.111c-1.37.703-1.465 2.625-.172 3.46l5.729 3.701c1.293.836 3.006-.042 3.083-1.58l.34-6.812c.077-1.538-1.54-2.582-2.91-1.88l-6.07 3.111c-1.37.703-1.465 2.625-.172 3.46l5.729 3.701c1.293.836 3.006-.042 3.083-1.58"/><path fill="#32A753" d="M67.022 136.045a4.5 4.5 0 1 1-8.99-.45 4.5 4.5 0 0 1 8.99.45"/><path fill="#F9BB00" d="M28.022 68.045a4.5 4.5 0 1 1-8.99-.45 4.5 4.5 0 0 1 8.99.45"/><path fill="#F1F3F4" d="M426.024 87.47a2.999 2.999 0 0 1-3.147 2.846 2.999 2.999 0 1 1 3.146-2.846"/><path fill="#E74133" d="M441.376 117.08a4 4 0 1 0 5.412 5.892l5.891-5.412a4 4 0 0 0-5.412-5.892l-5.891 5.413z"/><path fill="#F1F3F4" d="M13.507 125.467c4.518-2.411 6.563-7.644 5.12-12.363a1.701 1.701 0 0 0-2.427-1.013L.897 120.256a1.703 1.703 0 0 0-.511 2.58c3.117 3.827 8.602 5.042 13.12 2.631M67.06 68.092l-4.362-4.362c-2.266-2.266-2.266-5.973 0-8.24 2.266-2.265 5.973-2.265 8.24 0l4.361 4.363c2.266 2.265 2.266 5.973 0 8.239-2.266 2.266-5.973 2.266-8.239 0"/></g></g></svg>